<svg width="578" height="36" viewBox="0 0 578 36" fill="none" xmlns="http://www.w3.org/2000/svg">
<rect width="578" height="34" rx="10" transform="matrix(1 0 0 -1 0 35)" fill="#0067A5"/>
<path d="M573 17L568 12L573 7L573 17Z" stroke="white" stroke-opacity="0.5"/>
<path d="M4 7L9 12L4 17L4 7Z" stroke="white" stroke-opacity="0.5"/>
<path d="M98 17L93 12L98 7L103 12L98 17Z" stroke="white" stroke-opacity="0.5"/>
<path d="M193 17L188 12L193 7L198 12L193 17Z" stroke="white" stroke-opacity="0.5"/>
<path d="M288.5 17L282 12L288.5 7L295 12L288.5 17Z" stroke="white" stroke-opacity="0.5"/>
<path d="M384 17L379 12L384 7L389 12L384 17Z" stroke="white" stroke-opacity="0.5"/>
<path d="M479 17L474 12L479 7L484 12L479 17Z" stroke="white" stroke-opacity="0.5"/>
<path d="M549 32L554.5 27L560 32H549Z" stroke="white" stroke-opacity="0.5"/>
<path d="M454 32L459.5 27L465 32H454Z" stroke="white" stroke-opacity="0.5"/>
<path d="M360 32L365 27L370 32H360Z" stroke="white" stroke-opacity="0.5"/>
<path d="M263 32L268 27L273 32H263Z" stroke="white" stroke-opacity="0.5"/>
<path d="M168 32L173.5 27L179 32H168Z" stroke="white" stroke-opacity="0.5"/>
<path d="M74 32L79 27L84 32H74Z" stroke="white" stroke-opacity="0.5"/>
<path d="M493 32L498 27L503 32H493Z" stroke="white" stroke-opacity="0.5"/>
<path d="M398 32L403.5 27L409 32H398Z" stroke="white" stroke-opacity="0.5"/>
<path d="M304 32L309 27L314 32H304Z" stroke="white" stroke-opacity="0.5"/>
<path d="M207 32L212 27L217 32H207Z" stroke="white" stroke-opacity="0.5"/>
<path d="M112 32L117.5 27L123 32H112Z" stroke="white" stroke-opacity="0.5"/>
<path d="M17 32L22.5 27L28 32H17Z" stroke="white" stroke-opacity="0.5"/>
<path d="M573 1L571 3L564.757 9L558.514 3L556.954 1.5L548.11 1.5L533.023 1.5L526.26 8L519.497 1.5L492.965 1.5L486.202 8L481 3L481 1" stroke="url(#paint0_linear_165_7778)"/>
<path d="M477 1L477 3L470.688 9L464.376 3L462.798 1.5L453.855 1.5L438.601 1.5L431.763 8L424.925 1.5L398.098 1.5L391.26 8L386 3L386 1" stroke="url(#paint1_linear_165_7778)"/>
<path d="M382 1L382 3L375.827 9L369.653 3L368.11 1.5L359.364 1.5L344.445 1.5L337.757 8L331.069 1.5L304.832 1.5L298.145 8L293 3L293 1" stroke="url(#paint2_linear_165_7778)"/>
<path d="M285 1L285 3L278.827 9L272.653 3L271.11 1.5L262.364 1.5L247.445 1.5L240.757 8L234.069 1.5L207.832 1.5L201.145 8L196 3L196 1" stroke="url(#paint3_linear_165_7778)"/>
<path d="M191 1L191 3L184.757 9L178.514 3L176.954 1.5L168.11 1.5L153.023 1.5L146.26 8L139.497 1.5L112.965 1.5L106.202 8L101 3L101 1" stroke="url(#paint4_linear_165_7778)"/>
<path d="M96 1L96 3L89.7572 9L83.5144 3L81.9538 1.5L73.1098 1.5L58.0231 1.5L51.2601 8L44.4971 1.5L17.9653 1.5L11.2023 8L6 3L4 0.999996" stroke="url(#paint5_linear_165_7778)"/>
<path d="M557 23.8889L565.296 15L571 21.1111L571 30L562.704 30L557 23.8889Z" stroke="white" stroke-opacity="0.5"/>
<path d="M462 23.8889L470.296 15L476 21.1111L476 30L467.704 30L462 23.8889Z" stroke="white" stroke-opacity="0.5"/>
<path d="M367 23.8889L375.296 15L381 21.1111L381 30L372.704 30L367 23.8889Z" stroke="white" stroke-opacity="0.5"/>
<path d="M270 23.8889L278.296 15L284 21.1111L284 30L275.704 30L270 23.8889Z" stroke="white" stroke-opacity="0.5"/>
<path d="M177 23.8889L185.296 15L191 21.1111L191 30L182.704 30L177 23.8889Z" stroke="white" stroke-opacity="0.5"/>
<path d="M82 23.8889L90.2963 15L96 21.1111L96 30L87.7037 30L82 23.8889Z" stroke="white" stroke-opacity="0.5"/>
<path d="M490 11.7037L498.296 20L504 14.2963L504 6L495.704 6L490 11.7037Z" stroke="white" stroke-opacity="0.5"/>
<path d="M395 11.7037L403.889 20L410 14.2963L410 6L401.111 6L395 11.7037Z" stroke="white" stroke-opacity="0.5"/>
<path d="M301 11.7037L309.296 20L315 14.2963L315 6L306.704 6L301 11.7037Z" stroke="white" stroke-opacity="0.5"/>
<path d="M204 11.7037L212.296 20L218 14.2963L218 6L209.704 6L204 11.7037Z" stroke="white" stroke-opacity="0.5"/>
<path d="M110 11.7037L118.296 20L124 14.2963L124 6L115.704 6L110 11.7037Z" stroke="white" stroke-opacity="0.5"/>
<path d="M15 11.7037L23.2963 20L29 14.2963L29 6L20.7037 6L15 11.7037Z" stroke="white" stroke-opacity="0.5"/>
<path d="M563 11.7037L554.704 20L549 14.2963L549 6L557.296 6L563 11.7037Z" stroke="white" stroke-opacity="0.5"/>
<path d="M468 11.7037L459.704 20L454 14.2963L454 6L462.296 6L468 11.7037Z" stroke="white" stroke-opacity="0.5"/>
<path d="M373 11.7037L364.704 20L359 14.2963L359 6L367.296 6L373 11.7037Z" stroke="white" stroke-opacity="0.5"/>
<path d="M276 11.7037L267.704 20L262 14.2963L262 6L270.296 6L276 11.7037Z" stroke="white" stroke-opacity="0.5"/>
<path d="M182 11.7037L173.111 20L167 14.2963L167 6L175.889 6L182 11.7037Z" stroke="white" stroke-opacity="0.5"/>
<path d="M87 11.7037L79.2963 20L74 14.2963L74 6L81.7037 6L87 11.7037Z" stroke="white" stroke-opacity="0.5"/>
<path d="M496 22.8889L487.704 14L482 20.1111L482 29L490.296 29L496 22.8889Z" stroke="white" stroke-opacity="0.5"/>
<path d="M401 22.8889L392.704 14L387 20.1111L387 29L395.296 29L401 22.8889Z" stroke="white" stroke-opacity="0.5"/>
<path d="M307 22.8889L298.704 14L293 20.1111L293 29L301.296 29L307 22.8889Z" stroke="white" stroke-opacity="0.5"/>
<path d="M210 22.8889L201.704 14L196 20.1111L196 29L204.296 29L210 22.8889Z" stroke="white" stroke-opacity="0.5"/>
<path d="M115 22.8889L106.704 14L101 20.1111L101 29L109.296 29L115 22.8889Z" stroke="white" stroke-opacity="0.5"/>
<path d="M20 22.8889L11.5 15L7 20.1111L7 29L14.7037 29L20 22.8889Z" stroke="white" stroke-opacity="0.5"/>
<path d="M551 24.2609L545.366 30L537.171 30L537.171 20.087L530 12.7826L536.659 6L544.341 6L544.341 17.4783L551 24.2609Z" stroke="white" stroke-opacity="0.5"/>
<path d="M456 24.2609L450.366 30L442.171 30L442.171 20.087L435 12.7826L441.659 6L449.341 6L449.341 17.4783L456 24.2609Z" stroke="white" stroke-opacity="0.5"/>
<path d="M362 24.2609L356.366 30L348.171 30L348.171 20.087L341 12.7826L347.659 6L355.341 6L355.341 17.4783L362 24.2609Z" stroke="white" stroke-opacity="0.5"/>
<path d="M265 24.2609L259.366 30L251.171 30L251.171 20.087L244 12.7826L250.659 6L258.341 6L258.341 17.4783L265 24.2609Z" stroke="white" stroke-opacity="0.5"/>
<path d="M170 24.2609L164.366 30L156.171 30L156.171 20.087L149 12.7826L155.659 6L163.341 6L163.341 17.4783L170 24.2609Z" stroke="white" stroke-opacity="0.5"/>
<path d="M76 24.2609L70.0976 30L61.5122 30L61.5122 20.087L54 12.7826L60.9756 6L69.0244 6L69.0244 17.4783L76 24.2609Z" stroke="white" stroke-opacity="0.5"/>
<path d="M523 12.7391L517.098 7L508.512 7L508.512 16.913L501 24.2174L507.976 31L516.024 31L516.024 19.5217L523 12.7391Z" stroke="white" stroke-opacity="0.5"/>
<path d="M429 12.7391L423.366 7L415.171 7L415.171 16.913L408 24.2174L414.659 31L422.341 31L422.341 19.5217L429 12.7391Z" stroke="white" stroke-opacity="0.5"/>
<path d="M334 12.7391L328.366 7L320.171 7L320.171 16.913L313 24.2174L319.659 31L327.341 31L327.341 19.5217L334 12.7391Z" stroke="white" stroke-opacity="0.5"/>
<path d="M237 12.7391L231.366 7L223.171 7L223.171 16.913L216 24.2174L222.659 31L230.341 31L230.341 19.5217L237 12.7391Z" stroke="white" stroke-opacity="0.5"/>
<path d="M142 12.7391L136.366 7L128.171 7L128.171 16.913L121 24.2174L127.659 31L135.341 31L135.341 19.5217L142 12.7391Z" stroke="white" stroke-opacity="0.5"/>
<path d="M47 12.7391L41.3659 7L33.1707 7L33.1707 16.913L26 24.2174L32.6585 31L40.3415 31L40.3415 19.5217L47 12.7391Z" stroke="white" stroke-opacity="0.5"/>
<path d="M532.394 29.3046L520.581 29.3046L520.581 21.183L526.487 15.2764L532.394 21.183L532.394 29.3046Z" stroke="white" stroke-opacity="0.5"/>
<path d="M437.376 29.3046L425.563 29.3046L425.563 21.183L431.469 15.2764L437.376 21.183L437.376 29.3046Z" stroke="white" stroke-opacity="0.5"/>
<path d="M342.358 29.3046L330.545 29.3046L330.545 21.183L336.451 15.2764L342.358 21.183L342.358 29.3046Z" stroke="white" stroke-opacity="0.5"/>
<path d="M247.34 29.3046L235.526 29.3046L235.526 21.183L241.433 15.2764L247.34 21.183L247.34 29.3046Z" stroke="white" stroke-opacity="0.5"/>
<path d="M152.323 29.3046L140.509 29.3046L140.509 21.183L146.416 15.2764L152.323 21.183L152.323 29.3046Z" stroke="white" stroke-opacity="0.5"/>
<path d="M57.3046 29.3046L45.4913 29.3046L45.4913 21.183L51.3979 15.2764L57.3046 21.183L57.3046 29.3046Z" stroke="white" stroke-opacity="0.5"/>
<defs>
<linearGradient id="paint0_linear_165_7778" x1="527" y1="9" x2="527" y2="1" gradientUnits="userSpaceOnUse">
<stop stop-color="white" stop-opacity="0.5"/>
<stop offset="0.75" stop-color="white" stop-opacity="0.1"/>
<stop offset="0.885" stop-color="white" stop-opacity="0"/>
</linearGradient>
<linearGradient id="paint1_linear_165_7778" x1="431.5" y1="9" x2="431.5" y2="1" gradientUnits="userSpaceOnUse">
<stop stop-color="white" stop-opacity="0.5"/>
<stop offset="0.75" stop-color="white" stop-opacity="0.1"/>
<stop offset="0.885" stop-color="white" stop-opacity="0"/>
</linearGradient>
<linearGradient id="paint2_linear_165_7778" x1="337.5" y1="9" x2="337.5" y2="1" gradientUnits="userSpaceOnUse">
<stop stop-color="white" stop-opacity="0.5"/>
<stop offset="0.75" stop-color="white" stop-opacity="0.1"/>
<stop offset="0.885" stop-color="white" stop-opacity="0"/>
</linearGradient>
<linearGradient id="paint3_linear_165_7778" x1="240.5" y1="9" x2="240.5" y2="1" gradientUnits="userSpaceOnUse">
<stop stop-color="white" stop-opacity="0.5"/>
<stop offset="0.75" stop-color="white" stop-opacity="0.1"/>
<stop offset="0.885" stop-color="white" stop-opacity="0"/>
</linearGradient>
<linearGradient id="paint4_linear_165_7778" x1="146" y1="9" x2="146" y2="1" gradientUnits="userSpaceOnUse">
<stop stop-color="white" stop-opacity="0.5"/>
<stop offset="0.75" stop-color="white" stop-opacity="0.1"/>
<stop offset="0.885" stop-color="white" stop-opacity="0"/>
</linearGradient>
<linearGradient id="paint5_linear_165_7778" x1="50" y1="9" x2="50" y2="1" gradientUnits="userSpaceOnUse">
<stop stop-color="white" stop-opacity="0.5"/>
<stop offset="0.75" stop-color="white" stop-opacity="0.1"/>
<stop offset="0.885" stop-color="white" stop-opacity="0"/>
</linearGradient>
</defs>
</svg>
