<svg width="277" height="225" viewBox="0 0 277 225" fill="none" xmlns="http://www.w3.org/2000/svg">
<path d="M81 161.169C92.7524 152.507 105.414 145.106 118.767 139.094C139.391 130.101 159.029 115.384 159.029 95.9183C159.029 76.4528 150.87 74 146.042 74C139.391 74 120.072 81.7862 113.934 114.723C107.796 147.66 121.416 164.245 132.9 164.905C144.379 165.571 149.009 162.999 156.172 148.283C162.944 143.301 168.686 141.899 170.228 134.735C170.313 134.282 170.301 133.817 170.193 133.369C170.085 132.921 169.883 132.5 169.6 132.133C169.317 131.766 168.959 131.461 168.55 131.238C168.14 131.015 167.688 130.879 167.221 130.837L164.128 130.452C164.835 129.26 165.796 128.231 166.945 127.438C168.093 126.645 169.403 126.105 170.784 125.856C175.254 125.195 178.265 117.528 178.265 117.528C178.265 117.528 162.432 120.603 152.968 142.873C143.509 165.143 125.259 154.319 123.712 145.326C119.608 127.184 122.279 108.195 131.237 91.8303C141.648 74 163.186 87.9372 141.648 113.088C120.585 133.718 82.8222 141.39 81 161.169ZM182.258 119.862L186.221 126.364C186.415 126.69 186.681 126.969 186.999 127.181C187.317 127.392 187.679 127.531 188.058 127.587C188.438 127.643 188.825 127.615 189.193 127.505C189.56 127.394 189.897 127.204 190.18 126.949L196.158 121.768C196.599 121.362 196.887 120.821 196.973 120.233C197.059 119.646 196.939 119.047 196.632 118.535L192.674 112.151C192.479 111.825 192.213 111.546 191.895 111.334C191.576 111.122 191.213 110.984 190.833 110.928C190.453 110.872 190.065 110.901 189.697 111.013C189.33 111.124 188.993 111.315 188.71 111.571L182.736 116.824C182.334 117.213 182.07 117.719 181.984 118.268C181.899 118.816 181.997 119.377 182.263 119.866L182.258 119.862Z" fill="#1F526B"/>
<rect x="0.5" y="0.5" width="276" height="224" rx="19.5" stroke="#0067A5"/>
</svg>
