<svg width="100" height="100" viewBox="0 0 100 100" fill="none" xmlns="http://www.w3.org/2000/svg">
<g filter="url(#filter0_d_391_2)">
<rect x="14" y="12" width="72" height="72" rx="20" fill="#F5F9FB"/>
</g>
<g clip-path="url(#clip0_391_2)">
<path d="M49.4326 62.7622H67.6675L69.6465 60.6807H47.7612L49.4326 62.7622ZM38.0508 50.0884C37.9927 49.897 37.791 49.7876 37.603 49.8457C37.4116 49.9038 37.3022 50.1055 37.3604 50.2969C37.6851 51.3735 38.2251 52.2622 38.8813 52.9492C39.5991 53.7012 40.4639 54.2036 41.3423 54.4326C41.5337 54.4839 41.7319 54.3643 41.7832 54.1729C41.8345 53.9814 41.7148 53.7832 41.5234 53.7319C40.7681 53.5371 40.0264 53.0996 39.4043 52.4468C38.8198 51.8452 38.3413 51.0488 38.0508 50.0884ZM57.2803 38.4639H57.1846C57.1846 37.6709 56.8872 36.9771 56.2959 36.3823C55.7046 35.791 55.0107 35.4937 54.2144 35.4937V35.3945C55.0073 35.3945 55.7012 35.0972 56.2959 34.5024C56.8872 33.9077 57.1846 33.2139 57.1846 32.4209H57.2803C57.2803 33.2139 57.5776 33.9077 58.1689 34.5024C58.7603 35.0972 59.4541 35.3911 60.2505 35.3911V35.4868C59.4575 35.4868 58.7637 35.7842 58.1689 36.3755C57.5776 36.9736 57.2803 37.6675 57.2803 38.4639ZM61.6963 44.8008H61.6519C61.6519 44.4385 61.5151 44.1172 61.2417 43.8472C60.9683 43.5771 60.6504 43.4404 60.2881 43.4404V43.396C60.6504 43.396 60.9717 43.2593 61.2417 42.9893C61.5151 42.7158 61.6519 42.3979 61.6519 42.0356H61.6963C61.6963 42.3979 61.833 42.7192 62.1064 42.9893C62.3765 43.2627 62.6943 43.3994 63.0601 43.3994V43.4438C62.6978 43.4438 62.3765 43.5806 62.1064 43.8506C61.833 44.1206 61.6963 44.4385 61.6963 44.8008ZM65.6816 40.5522H65.5996C65.5996 39.8857 65.3501 39.3047 64.8545 38.8057C64.3555 38.3066 63.7744 38.0571 63.1079 38.0571V37.9751C63.7744 37.9751 64.3555 37.7256 64.8545 37.2266C65.3535 36.7275 65.5996 36.1465 65.5996 35.48H65.6816C65.6816 36.1465 65.9311 36.7275 66.4302 37.2266C66.9292 37.7256 67.5103 37.9751 68.1768 37.9751V38.0571C67.5103 38.0571 66.9292 38.3066 66.4302 38.8057C65.9277 39.3047 65.6816 39.8857 65.6816 40.5522ZM43.6187 38.5732C46.3325 38.5732 48.7935 39.6738 50.5742 41.4546C52.355 43.2354 53.4556 45.6929 53.4556 48.4102C53.4556 49.3228 53.3325 50.2046 53.1001 51.042H57.0273C57.1948 50.1909 57.2803 49.3091 57.2803 48.4102C57.2803 44.6367 55.7524 41.2222 53.2778 38.751C50.8066 36.2729 47.3921 34.7451 43.6187 34.7451C39.8452 34.7451 36.4307 36.2764 33.9595 38.7476C31.4849 41.2188 29.957 44.6333 29.957 48.4067C29.957 52.1802 31.4883 55.5947 33.9595 58.0659C36.4307 60.5371 39.8486 62.0684 43.6187 62.0684C44.9346 62.0684 46.2061 61.8838 47.4092 61.5352L46.6162 60.5474C46.5478 60.4756 46.5068 60.3765 46.5068 60.2705C46.5068 60.0449 46.688 59.8638 46.9136 59.8638H48.4312L46.7256 57.7412C45.748 58.0659 44.7056 58.2437 43.6187 58.2437C40.9048 58.2437 38.4438 57.1431 36.6631 55.3623C34.8823 53.5815 33.7817 51.124 33.7817 48.4067C33.7817 45.6929 34.8823 43.2319 36.6631 41.4512C38.4438 39.6738 40.9048 38.5732 43.6187 38.5732ZM52.2422 51.042C52.4951 50.208 52.6318 49.3262 52.6318 48.4102C52.6318 45.9219 51.6235 43.666 49.9897 42.0356C48.356 40.4053 46.1035 39.3936 43.6152 39.3936C41.127 39.3936 38.8711 40.4019 37.2407 42.0356C35.6069 43.6694 34.5986 45.9219 34.5986 48.4102C34.5986 50.8984 35.6069 53.1543 37.2407 54.7847C38.8711 56.415 41.127 57.4268 43.6152 57.4268C45.1841 57.4268 46.6572 57.0269 47.9424 56.3228L46.5991 54.6411C46.459 54.4668 46.4863 54.2104 46.6606 54.0703C46.7358 54.0088 46.8247 53.9814 46.9136 53.9814H48.4312L46.5991 51.6982C46.459 51.5239 46.4863 51.2676 46.6606 51.1274C46.7358 51.0659 46.8247 51.0386 46.9136 51.0386H52.2422V51.042ZM48.6431 55.8921L48.6943 55.8579L48.749 56.0254L49.4736 56.9277H67.623L69.6465 54.7983H47.7612L48.6431 55.8921ZM43.6187 33.7915C47.6553 33.7915 51.3091 35.4287 53.9546 38.0742C56.6001 40.7197 58.2373 44.3735 58.2373 48.4102C58.2373 49.3091 58.1553 50.1875 58.0015 51.042H70.5967C70.8223 51.042 71.0034 51.2231 71.0034 51.4487C71.0034 51.5684 70.9521 51.6743 70.8701 51.7495L68.7441 53.9849H70.5967C70.8223 53.9849 71.0034 54.166 71.0034 54.3916C71.0034 54.5112 70.9521 54.6172 70.8701 54.6924L68.7441 56.9277H70.5967C70.8223 56.9277 71.0034 57.1089 71.0034 57.3345C71.0034 57.4541 70.9521 57.5601 70.8701 57.6353L68.7441 59.8706H70.5967C70.6958 59.8706 70.7983 59.9082 70.8769 59.9834C71.0376 60.1372 71.0444 60.3936 70.8906 60.5576L68.1597 63.4321C68.0845 63.5244 67.9717 63.5791 67.8452 63.5791H49.2412C49.1216 63.5791 49.0054 63.5278 48.9268 63.4287L48.0586 62.3452C46.6606 62.7896 45.167 63.0322 43.6221 63.0322C39.5854 63.0322 35.9316 61.395 33.2861 58.7495C30.6372 56.1006 29 52.4468 29 48.4067C29 44.3701 30.6372 40.7163 33.2827 38.0708C35.9248 35.4253 39.582 33.7915 43.6187 33.7915ZM67.623 59.8672L69.6465 57.7378H47.7612L49.4702 59.8672H67.623ZM67.623 53.9814L69.6465 51.8521H47.7612L49.4702 53.9814H67.623Z" fill="#0067A5"/>
</g>
<defs>
<filter id="filter0_d_391_2" x="0" y="0" width="100" height="100" filterUnits="userSpaceOnUse" color-interpolation-filters="sRGB">
<feFlood flood-opacity="0" result="BackgroundImageFix"/>
<feColorMatrix in="SourceAlpha" type="matrix" values="0 0 0 0 0 0 0 0 0 0 0 0 0 0 0 0 0 0 127 0" result="hardAlpha"/>
<feOffset dy="2"/>
<feGaussianBlur stdDeviation="7"/>
<feComposite in2="hardAlpha" operator="out"/>
<feColorMatrix type="matrix" values="0 0 0 0 0.733333 0 0 0 0 0.670588 0 0 0 0 0.619608 0 0 0 0.12 0"/>
<feBlend mode="normal" in2="BackgroundImageFix" result="effect1_dropShadow_391_2"/>
<feBlend mode="normal" in="SourceGraphic" in2="effect1_dropShadow_391_2" result="shape"/>
</filter>
<clipPath id="clip0_391_2">
<rect width="42" height="42" fill="white" transform="translate(29 27)"/>
</clipPath>
</defs>
</svg>
