<svg width="32" height="32" viewBox="0 0 32 32" fill="none" xmlns="http://www.w3.org/2000/svg">
<rect x="0.5" y="0.5" width="31" height="31" rx="9.5" stroke="#1C39BB"/>
<mask id="mask0_291_9" style="mask-type:alpha" maskUnits="userSpaceOnUse" x="4" y="4" width="24" height="24">
<rect x="4.46191" y="4.5863" width="23.1659" height="23.1659" fill="#D9D9D9"/>
</mask>
<g mask="url(#mask0_291_9)">
<path d="M9.28791 25.8217C8.75703 25.8217 8.30256 25.6327 7.9245 25.2546C7.54645 24.8766 7.35742 24.4221 7.35742 23.8912V12.3082C7.35742 11.7774 7.54645 11.3229 7.9245 10.9448C8.30256 10.5668 8.75703 10.3777 9.28791 10.3777H11.2184C11.2184 9.04249 11.689 7.9043 12.6301 6.96319C13.5712 6.02207 14.7094 5.55151 16.0446 5.55151C17.3799 5.55151 18.5181 6.02207 19.4592 6.96319C20.4003 7.9043 20.8709 9.04249 20.8709 10.3777H22.8014C23.3323 10.3777 23.7867 10.5668 24.1648 10.9448C24.5428 11.3229 24.7319 11.7774 24.7319 12.3082V23.8912C24.7319 24.4221 24.5428 24.8766 24.1648 25.2546C23.7867 25.6327 23.3323 25.8217 22.8014 25.8217H9.28791ZM9.28791 23.8912H22.8014V12.3082H9.28791V23.8912ZM13.1489 10.3777H18.9404C18.9404 9.57337 18.6588 8.88966 18.0958 8.3266C17.5327 7.76354 16.849 7.48201 16.0446 7.48201C15.2403 7.48201 14.5566 7.76354 13.9935 8.3266C13.4304 8.88966 13.1489 9.57337 13.1489 10.3777ZM16.0205 18.0997C17.211 18.0997 18.2888 17.7056 19.2541 16.9173C20.2193 16.129 20.6939 15.2442 20.6778 14.2629C20.6778 13.9894 20.5893 13.7561 20.4124 13.5631C20.2354 13.37 20.0102 13.2735 19.7367 13.2735C19.5115 13.2735 19.3104 13.3459 19.1334 13.4907C18.9565 13.6355 18.8278 13.8526 18.7473 14.1422C18.5704 14.7535 18.2245 15.2442 17.7097 15.6142C17.1949 15.9842 16.6318 16.1692 16.0205 16.1692C15.4092 16.1692 14.8421 15.9842 14.3193 15.6142C13.7964 15.2442 13.4546 14.7535 13.2937 14.1422C13.2133 13.8365 13.0926 13.6153 12.9317 13.4786C12.7708 13.3419 12.5778 13.2735 12.3526 13.2735C12.0791 13.2735 11.8498 13.37 11.6648 13.5631C11.4798 13.7561 11.3873 13.9894 11.3873 14.2629C11.3873 15.2442 11.8619 16.129 12.8111 16.9173C13.7602 17.7056 14.83 18.0997 16.0205 18.0997Z" fill="#1C39BB"/>
</g>
</svg>
