<svg width="43" height="36" viewBox="0 0 43 36" fill="none" xmlns="http://www.w3.org/2000/svg">
<path d="M10.5139 28.0041C9.12795 28.0041 9.12795 30.1206 10.5139 30.1206H16.3028V34.942C16.3028 35.5264 16.7749 36 17.3564 36H26.3974C26.9794 36 27.4515 35.5264 27.4515 34.942V30.1206H35.22C39.0414 30.1206 42.1641 26.9849 42.1641 23.148V6.97258C42.1641 3.13516 39.0414 0 35.22 0H8.53382C4.71288 0 1.59024 3.13516 1.59024 6.97258V10.8345C1.59024 12.2263 3.69741 12.2263 3.69741 10.8345V6.97258C3.69741 4.30389 5.87624 2.11597 8.53382 2.11597H35.22C37.8781 2.11597 40.0564 4.30389 40.0564 6.97258V23.148C40.0564 25.8167 37.8776 28.0041 35.22 28.0041C26.9845 28.0041 18.7489 28.0041 10.5139 28.0041ZM21.932 9.97352C23.318 9.97352 23.318 7.85755 21.932 7.85755H10.2451C8.85909 7.85755 8.85909 9.97352 10.2451 9.97352H21.932ZM33.0681 23.9238C34.4541 23.9238 34.4541 21.8078 33.0681 21.8078H15.978C14.592 21.8078 14.592 23.9238 15.978 23.9238H33.0681ZM33.0681 19.4954C34.4541 19.4954 34.4541 17.3789 33.0681 17.3789H15.978C14.592 17.3789 14.592 19.4954 15.978 19.4954H33.0681ZM21.932 13.738C23.318 13.738 23.318 11.622 21.932 11.622H16.0888C14.7028 11.622 14.7028 13.738 16.0888 13.738H21.932ZM33.5087 6.19683H26.4523C25.8704 6.19683 25.3987 6.67045 25.3987 7.25481V14.3407C25.3987 14.9251 25.8704 15.3987 26.4523 15.3987H33.5087C34.0907 15.3987 34.5628 14.9251 34.5628 14.3407V7.25481C34.5628 6.67045 34.0907 6.19683 33.5087 6.19683ZM27.5064 8.3128H32.4552V13.2827H27.5064V8.3128ZM18.4104 30.1206H25.3439V33.884H18.4104V30.1206ZM2.1117 23.6553L0.238834 26.0382C-0.616024 27.1243 1.03067 28.4303 1.88503 27.3442L3.75789 24.9619C4.57006 25.3941 5.49658 25.6396 6.48053 25.6396C9.69312 25.6396 12.2978 23.024 12.2978 19.7975C12.2978 16.571 9.69362 13.9549 6.48053 13.9549C3.26744 13.9549 0.662201 16.571 0.662201 19.7975C0.662201 21.276 1.20957 22.6264 2.1117 23.6553ZM6.48053 16.0713C8.52975 16.0713 10.1907 17.7397 10.1907 19.7975C10.1907 21.8553 8.52975 23.5231 6.48053 23.5231C4.4313 23.5231 2.76987 21.8553 2.76987 19.7975C2.76987 17.7397 4.4313 16.0713 6.48053 16.0713Z" fill="#0067A5"/>
</svg>
