<svg width="338" height="402" viewBox="0 0 338 402" fill="none" xmlns="http://www.w3.org/2000/svg">
<path d="M86.6153 239.415L86.4102 239.263M86.4102 239.263L80.2442 234.515L79.3466 227.35L97.2092 224.697L86.4102 239.263Z" stroke="#007D6E" stroke-opacity="0.25"/>
<path d="M113.473 206.067L113.678 206.219M113.678 206.219L119.844 210.967L120.741 218.132L102.879 220.785L113.678 206.219Z" stroke="#007D6E" stroke-opacity="0.25"/>
<path d="M116.908 186.226L116.946 186.479M116.946 186.479L117.948 194.197L113.517 199.898L99.0103 189.143L116.946 186.479Z" stroke="#007D6E" stroke-opacity="0.25"/>
<path d="M73.2927 190.757L73.2552 190.504M73.2552 190.504L72.2527 182.787L76.6843 177.086L91.1908 187.841L73.2552 190.504Z" stroke="#007D6E" stroke-opacity="0.25"/>
<path d="M40.791 230.954L40.5384 230.992M40.5384 230.992L31.6969 232.305L26.5345 239.268L2.74383 221.63L21.8877 195.808L28.2705 200.541L36.8594 199.265L38.7152 208.284L45.6784 213.447L39.2254 222.15L40.5384 230.992Z" stroke="#007D6E" stroke-opacity="0.25"/>
<path d="M77.8274 213.96L79.4031 224.57L97.0861 221.944L111.068 203.085L92.8644 190.039L74.6761 192.74L75.9517 201.329L70.5742 208.582L77.8274 213.96Z" stroke="#007D6E" stroke-opacity="0.25"/>
<path d="M84.0996 166.197L77.7114 174.813L92.0722 185.46L115.293 182.012L111.647 159.915L96.8758 148.964L91.7045 155.939L82.7732 157.266L84.0996 166.197Z" stroke="#007D6E" stroke-opacity="0.25"/>
<path d="M105.268 252.344L113.479 258.431L122.754 245.92L119.367 223.112L99.2827 226.095L88.8477 240.169L95.4941 245.097L96.758 253.608L105.268 252.344Z" stroke="#007D6E" stroke-opacity="0.25"/>
<path d="M49.5251 268.902L50.8757 277.996L57.9489 276.946L61.8207 271.723L56.5983 267.851L49.5251 268.902Z" stroke="#007D6E" stroke-opacity="0.25"/>
<path d="M80.6848 273.569L79.3343 264.475L72.2611 265.525L68.3893 270.748L73.6116 274.62L80.6848 273.569Z" stroke="#007D6E" stroke-opacity="0.25"/>
<path d="M84.0664 258.092L93.1605 256.742L92.1101 249.669L86.8877 245.797L83.0159 251.019L84.0664 258.092Z" stroke="#007D6E" stroke-opacity="0.25"/>
<path d="M29.8542 241.852L37.2397 247.327L41.4984 241.583L40.5435 235.152L34.1129 236.107L29.8542 241.852Z" stroke="#007D6E" stroke-opacity="0.25"/>
<path d="M59.5378 201.814L66.9233 207.289L71.182 201.545L70.2271 195.114L63.7965 196.069L59.5378 201.814Z" stroke="#007D6E" stroke-opacity="0.25"/>
<path d="M29.1546 185.3L23.6791 192.685L29.4234 196.944L35.8539 195.989L34.8989 189.558L29.1546 185.3Z" stroke="#007D6E" stroke-opacity="0.25"/>
<path d="M33.9245 151.679L35.2751 160.773L42.3483 159.722L46.2201 154.5L40.9978 150.628L33.9245 151.679Z" stroke="#007D6E" stroke-opacity="0.25"/>
<path d="M67.9281 214.046L62.4525 221.431L68.1968 225.69L74.6274 224.735L73.6724 218.304L67.9281 214.046Z" stroke="#007D6E" stroke-opacity="0.25"/>
<path d="M56.1263 221.854L48.7408 216.379L44.482 222.123L45.437 228.554L51.8675 227.599L56.1263 221.854Z" stroke="#007D6E" stroke-opacity="0.25"/>
<path d="M51.0211 212.912L58.5645 218.504L64.157 210.961L56.6137 205.368L51.0211 212.912Z" stroke="#007D6E" stroke-opacity="0.25"/>
<path d="M69.3785 156.383L78.667 155.004L77.2876 145.715L67.999 147.095L69.3785 156.383Z" stroke="#007D6E" stroke-opacity="0.25"/>
<path d="M83.1889 262.664L84.5684 271.953L93.8569 270.573L92.4775 261.285L83.1889 262.664Z" stroke="#007D6E" stroke-opacity="0.25"/>
<path d="M47.8883 210.633L53.3639 203.248L47.6196 198.989L41.1891 199.944L42.144 206.374L47.8883 210.633Z" stroke="#007D6E" stroke-opacity="0.25"/>
<path d="M65.0833 156.346L63.7327 147.252L56.6595 148.302L52.7877 153.525L58.0101 157.396L65.0833 156.346Z" stroke="#007D6E" stroke-opacity="0.25"/>
<path d="M79.4004 158.867L70.3063 160.218L71.3567 167.291L76.5791 171.163L80.4509 165.94L79.4004 158.867Z" stroke="#007D6E" stroke-opacity="0.25"/>
<path d="M64.1132 268.027L63.823 267.812M63.823 267.812L58.0204 263.51L49.4315 264.785L48.081 255.691L41.1178 250.529L46.4953 243.275L45.1448 234.181L53.7337 232.906L59.7565 224.782L67.0097 230.16L76.1039 228.809L77.3794 237.398L83.4721 241.915L77.2342 250.329L78.5097 258.918L69.4156 260.268L63.823 267.812Z" stroke="#007D6E" stroke-opacity="0.25"/>
<path d="M54.6278 198.95L54.3377 198.735M54.3377 198.735L48.5351 194.433L39.9462 195.709L38.5956 186.614L31.6325 181.452L37.01 174.199L35.6594 165.105L44.2483 163.829L50.2711 155.706L57.5244 161.083L66.6185 159.732L67.894 168.321L73.9868 172.838L67.7489 181.252L69.0244 189.841L59.9303 191.192L54.3377 198.735Z" stroke="#007D6E" stroke-opacity="0.25"/>
<path d="M161.713 138.122L161.508 137.97M161.508 137.97L155.173 133.45L148.057 134.673L150.709 152.536L161.508 137.97Z" stroke="#007D6E" stroke-opacity="0.25"/>
<path d="M137.475 173.691L137.68 173.843M137.68 173.843L144.015 178.363L151.132 177.14L148.479 159.277L137.68 173.843Z" stroke="#007D6E" stroke-opacity="0.25"/>
<path d="M119.49 182.745L119.742 182.707M119.742 182.707L127.418 181.424L131.585 175.527L117.079 164.772L119.742 182.707Z" stroke="#007D6E" stroke-opacity="0.25"/>
<path d="M111.15 139.694L110.898 139.731M110.898 139.731L103.222 141.015L99.0546 146.912L113.561 157.667L110.898 139.731Z" stroke="#007D6E" stroke-opacity="0.25"/>
<path d="M140.167 96.9144L140.129 96.6618M140.129 96.6618L138.816 87.8202L143.979 80.8571L120.188 63.219L101.044 89.0405L107.427 93.7727L108.703 102.362L117.872 101.516L124.835 106.679L131.288 97.9748L140.129 96.6618Z" stroke="#007D6E" stroke-opacity="0.25"/>
<path d="M135.185 136.382L145.795 134.807L148.421 152.49L134.439 171.348L116.666 157.722L113.965 139.534L122.554 138.258L127.932 131.005L135.185 136.382Z" stroke="#007D6E" stroke-opacity="0.25"/>
<path d="M179.296 152.184L187.527 158.143L178.328 170.599L155.569 174.132L152.487 154.278L162.835 140.266L169.498 145.09L177.99 143.772L179.296 152.184Z" stroke="#007D6E" stroke-opacity="0.25"/>
<path d="M179.015 94.2435L188.109 92.893L189.16 99.9662L185.288 105.189L180.065 101.317L179.015 94.2435Z" stroke="#007D6E" stroke-opacity="0.25"/>
<path d="M192.536 122.701L183.442 124.052L182.391 116.979L186.263 111.756L191.485 115.628L192.536 122.701Z" stroke="#007D6E" stroke-opacity="0.25"/>
<path d="M178.71 130.435L180.06 139.529L172.987 140.58L167.765 136.708L171.636 131.485L178.71 130.435Z" stroke="#007D6E" stroke-opacity="0.25"/>
<path d="M147.416 83.2827L154.801 88.7582L150.542 94.5025L144.112 95.4575L143.157 89.0269L147.416 83.2827Z" stroke="#007D6E" stroke-opacity="0.25"/>
<path d="M117.732 123.321L125.118 128.796L120.859 134.54L114.428 135.495L113.473 129.065L117.732 123.321Z" stroke="#007D6E" stroke-opacity="0.25"/>
<path d="M93.102 99.0472L98.5776 91.6617L104.322 95.9205L105.277 102.351L98.8463 103.306L93.102 99.0472Z" stroke="#007D6E" stroke-opacity="0.25"/>
<path d="M62.3177 113.381L71.4118 112.031L72.4622 119.104L68.5904 124.326L63.3681 120.455L62.3177 113.381Z" stroke="#007D6E" stroke-opacity="0.25"/>
<path d="M131.875 127.793L137.35 120.408L143.094 124.666L144.049 131.097L137.619 132.052L131.875 127.793Z" stroke="#007D6E" stroke-opacity="0.25"/>
<path d="M135.916 114.232L128.531 108.756L132.79 103.012L139.22 102.057L140.175 108.487L135.916 114.232Z" stroke="#007D6E" stroke-opacity="0.25"/>
<path d="M125.876 111.946L133.419 117.539L127.826 125.082L120.283 119.49L125.876 111.946Z" stroke="#007D6E" stroke-opacity="0.25"/>
<path d="M182.829 128.267L192.117 126.887L193.497 136.176L184.208 137.555L182.829 128.267Z" stroke="#007D6E" stroke-opacity="0.25"/>
<path d="M122.785 109.61L117.309 116.995L111.565 112.736L110.61 106.306L117.04 105.351L122.785 109.61Z" stroke="#007D6E" stroke-opacity="0.25"/>
<path d="M75.8376 141.839L66.7435 143.19L65.693 136.117L69.5648 130.894L74.7872 134.766L75.8376 141.839Z" stroke="#007D6E" stroke-opacity="0.25"/>
<path d="M82.4114 154.805L81.0609 145.711L88.1341 144.661L93.3564 148.533L89.4846 153.755L82.4114 154.805Z" stroke="#007D6E" stroke-opacity="0.25"/>
<path d="M182.417 108.455L182.127 108.24M182.127 108.24L176.324 103.938L175.049 95.3494L165.955 96.6999L158.991 91.5375L153.614 98.7908L144.52 100.141L145.795 108.73L139.773 116.854L147.026 122.231L148.376 131.326L156.965 130.05L163.058 134.567L169.296 126.153L177.885 124.878L176.534 115.784L182.127 108.24Z" stroke="#007D6E" stroke-opacity="0.25"/>
<path d="M113.564 119.455L113.274 119.24M113.274 119.24L107.472 114.938L106.196 106.349L97.102 107.699L90.1389 102.537L84.7614 109.79L75.6673 111.141L76.9428 119.729L70.92 127.853L78.1733 133.231L79.5238 142.325L88.1127 141.049L94.2055 145.566L100.443 137.153L109.032 135.877L107.682 126.783L113.274 119.24Z" stroke="#007D6E" stroke-opacity="0.25"/>
<path d="M51.0205 317.219L43.7576 257.882L-3.82371 222.605L32.9583 172.993L24.3298 114.892L83.9469 106.038L119.653 57.8765L166.945 92.9377L223.53 84.5343" stroke="#007D6E" stroke-opacity="0.25"/>
<path d="M114.755 260.278L114.961 260.43M114.961 260.43L121.296 264.95L128.412 263.727L125.759 245.864L114.961 260.43Z" stroke="#007D6E" stroke-opacity="0.25"/>
<path d="M138.876 224.901L138.67 224.748M138.67 224.748L132.335 220.228L125.219 221.452L127.871 239.314L138.67 224.748Z" stroke="#007D6E" stroke-opacity="0.25"/>
<path d="M156.861 215.847L156.608 215.884M156.608 215.884L148.933 217.168L144.766 223.065L159.272 233.82L156.608 215.884Z" stroke="#007D6E" stroke-opacity="0.25"/>
<path d="M165.198 258.896L165.451 258.858M165.451 258.858L173.127 257.575L177.294 251.677L162.788 240.923L165.451 258.858Z" stroke="#007D6E" stroke-opacity="0.25"/>
<path d="M136.185 301.678L136.222 301.93M136.222 301.93L137.535 310.772L132.373 317.735L156.163 335.373L175.307 309.551L168.924 304.819L167.649 296.23L158.48 297.076L151.517 291.913L145.064 300.617L136.222 301.93Z" stroke="#007D6E" stroke-opacity="0.25"/>
<path d="M141.302 261.021L130.693 262.597L128.067 244.914L142.048 226.055L159.821 239.682L162.522 257.87L153.933 259.145L148.556 266.399L141.302 261.021Z" stroke="#007D6E" stroke-opacity="0.25"/>
<path d="M185.558 241.417L179.17 250.033L164.809 239.386L161.361 216.165L183.563 213.233L198.334 224.184L193.163 231.159L194.489 240.091L185.558 241.417Z" stroke="#007D6E" stroke-opacity="0.25"/>
<path d="M97.3337 304.346L88.2396 305.697L87.1891 298.624L91.0609 293.401L96.2833 297.273L97.3337 304.346Z" stroke="#007D6E" stroke-opacity="0.25"/>
<path d="M83.8138 275.89L92.9079 274.539L93.9583 281.612L90.0865 286.835L84.8642 282.963L83.8138 275.89Z" stroke="#007D6E" stroke-opacity="0.25"/>
<path d="M97.6409 268.157L96.2904 259.062L103.364 258.012L108.586 261.884L104.714 267.106L97.6409 268.157Z" stroke="#007D6E" stroke-opacity="0.25"/>
<path d="M128.933 315.308L121.547 309.832L125.806 304.088L132.237 303.133L133.192 309.563L128.933 315.308Z" stroke="#007D6E" stroke-opacity="0.25"/>
<path d="M158.617 275.27L151.231 269.794L155.49 264.05L161.92 263.095L162.875 269.525L158.617 275.27Z" stroke="#007D6E" stroke-opacity="0.25"/>
<path d="M183.25 299.544L177.775 306.93L172.031 302.671L171.076 296.241L177.506 295.286L183.25 299.544Z" stroke="#007D6E" stroke-opacity="0.25"/>
<path d="M214.035 285.21L204.941 286.56L203.89 279.487L207.762 274.265L212.984 278.137L214.035 285.21Z" stroke="#007D6E" stroke-opacity="0.25"/>
<path d="M144.476 270.798L139.001 278.184L133.256 273.925L132.301 267.494L138.732 266.539L144.476 270.798Z" stroke="#007D6E" stroke-opacity="0.25"/>
<path d="M140.434 284.359L147.82 289.835L143.561 295.579L137.13 296.534L136.175 290.104L140.434 284.359Z" stroke="#007D6E" stroke-opacity="0.25"/>
<path d="M150.475 286.645L142.932 281.053L148.524 273.509L156.068 279.102L150.475 286.645Z" stroke="#007D6E" stroke-opacity="0.25"/>
<path d="M199.23 252.654L197.851 243.365L207.139 241.986L208.519 251.274L199.23 252.654Z" stroke="#007D6E" stroke-opacity="0.25"/>
<path d="M153.563 288.98L159.039 281.595L164.783 285.853L165.738 292.284L159.307 293.239L153.563 288.98Z" stroke="#007D6E" stroke-opacity="0.25"/>
<path d="M200.51 256.75L209.604 255.4L210.655 262.473L206.783 267.695L201.56 263.823L200.51 256.75Z" stroke="#007D6E" stroke-opacity="0.25"/>
<path d="M193.937 243.784L195.288 252.879L188.215 253.929L182.992 250.057L186.864 244.835L193.937 243.784Z" stroke="#007D6E" stroke-opacity="0.25"/>
<path d="M93.9327 290.135L94.2228 290.35M94.2228 290.35L100.025 294.652L101.301 303.241L110.395 301.89L117.358 307.053L122.736 299.799L131.83 298.449L130.554 289.86L136.577 281.736L129.324 276.359L127.973 267.265L119.384 268.54L113.292 264.023L107.054 272.437L98.4648 273.712L99.8154 282.807L94.2228 290.35Z" stroke="#007D6E" stroke-opacity="0.25"/>
<path d="M162.785 279.137L163.075 279.352M163.075 279.352L168.878 283.654L170.153 292.243L179.248 290.892L186.211 296.054L191.588 288.801L200.682 287.451L199.407 278.862L205.43 270.738L198.176 265.361L196.826 256.266L188.237 257.542L182.144 253.025L175.906 261.439L167.317 262.714L168.668 271.808L163.075 279.352Z" stroke="#007D6E" stroke-opacity="0.25"/>
<path d="M215.92 274.942L217.122 283.039L245.913 278.763L241.637 249.973L233.54 251.175L226.565 246.004L221.202 253.238L213.105 254.44L214.308 262.537L208.945 269.771L215.92 274.942Z" stroke="#007D6E" stroke-opacity="0.25"/>
<path d="M216.339 118.327L224.436 117.125L220.16 88.3345L191.37 92.6101L192.573 100.707L187.402 107.682L194.635 113.045L195.837 121.142L203.934 119.94L211.168 125.302L216.339 118.327Z" stroke="#007D6E" stroke-opacity="0.25"/>
<path d="M60.2687 123.114L59.0662 115.017L30.2758 119.293L34.5514 148.083L42.6487 146.881L49.6235 152.052L54.9861 144.819L63.0834 143.616L61.8809 135.519L67.2435 128.286L60.2687 123.114Z" stroke="#007D6E" stroke-opacity="0.25"/>
<path d="M60.3654 280.111L52.2681 281.314L56.5437 310.104L85.334 305.828L84.1315 297.731L89.3026 290.756L82.0694 285.394L80.8669 277.296L72.7696 278.499L65.5365 273.136L60.3654 280.111Z" stroke="#007D6E" stroke-opacity="0.25"/>
<path d="M189.336 158.602L189.541 158.754M189.541 158.754L195.707 163.502L196.605 170.667L178.742 173.32L189.541 158.754Z" stroke="#007D6E" stroke-opacity="0.25"/>
<path d="M162.879 192.525L162.674 192.373M162.674 192.373L156.508 187.624L155.61 180.459L173.473 177.807L162.674 192.373Z" stroke="#007D6E" stroke-opacity="0.25"/>
<path d="M159.442 212.365L159.405 212.112M159.405 212.112L158.402 204.395L162.834 198.694L177.34 209.449L159.405 212.112Z" stroke="#007D6E" stroke-opacity="0.25"/>
<path d="M203.056 207.833L203.093 208.085M203.093 208.085L204.096 215.803L199.664 221.504L185.158 210.749L203.093 208.085Z" stroke="#007D6E" stroke-opacity="0.25"/>
<path d="M235.561 167.638L235.813 167.6M235.813 167.6L244.655 166.287L249.817 159.324L273.608 176.962L254.464 202.784L248.081 198.051L239.492 199.327L237.636 190.308L230.673 185.145L237.126 176.442L235.813 167.6Z" stroke="#007D6E" stroke-opacity="0.25"/>
<path d="M199.243 183.874L197.667 173.264L179.984 175.89L166.003 194.749L184.206 207.795L202.394 205.093L201.119 196.505L206.496 189.251L199.243 183.874Z" stroke="#007D6E" stroke-opacity="0.25"/>
<path d="M226.823 129.688L225.472 120.594L218.399 121.644L214.527 126.867L219.749 130.738L226.823 129.688Z" stroke="#007D6E" stroke-opacity="0.25"/>
<path d="M195.666 125.022L197.016 134.116L204.09 133.066L207.961 127.843L202.739 123.971L195.666 125.022Z" stroke="#007D6E" stroke-opacity="0.25"/>
<path d="M192.285 140.499L183.191 141.85L184.242 148.923L189.464 152.795L193.336 147.572L192.285 140.499Z" stroke="#007D6E" stroke-opacity="0.25"/>
<path d="M246.494 156.739L239.109 151.263L234.85 157.007L235.805 163.438L242.236 162.483L246.494 156.739Z" stroke="#007D6E" stroke-opacity="0.25"/>
<path d="M216.811 196.777L209.425 191.301L205.167 197.045L206.122 203.476L212.552 202.521L216.811 196.777Z" stroke="#007D6E" stroke-opacity="0.25"/>
<path d="M247.197 213.292L252.672 205.906L246.928 201.648L240.498 202.603L241.453 209.033L247.197 213.292Z" stroke="#007D6E" stroke-opacity="0.25"/>
<path d="M242.427 246.913L241.076 237.819L234.003 238.869L230.131 244.091L235.354 247.963L242.427 246.913Z" stroke="#007D6E" stroke-opacity="0.25"/>
<path d="M208.423 184.546L213.899 177.16L208.155 172.901L201.724 173.856L202.679 180.287L208.423 184.546Z" stroke="#007D6E" stroke-opacity="0.25"/>
<path d="M220.225 176.737L227.611 182.212L231.87 176.468L230.915 170.037L224.484 170.992L220.225 176.737Z" stroke="#007D6E" stroke-opacity="0.25"/>
<path d="M225.33 185.68L217.787 180.087L212.195 187.631L219.738 193.223L225.33 185.68Z" stroke="#007D6E" stroke-opacity="0.25"/>
<path d="M228.46 187.957L222.985 195.342L228.729 199.601L235.16 198.646L234.205 192.215L228.46 187.957Z" stroke="#007D6E" stroke-opacity="0.25"/>
<path d="M211.265 242.244L212.616 251.338L219.689 250.287L223.561 245.065L218.339 241.193L211.265 242.244Z" stroke="#007D6E" stroke-opacity="0.25"/>
<path d="M196.948 239.723L206.042 238.372L204.992 231.299L199.77 227.427L195.898 232.649L196.948 239.723Z" stroke="#007D6E" stroke-opacity="0.25"/>
<path d="M212.237 130.564L212.528 130.779M212.528 130.779L218.33 135.081L226.919 133.805L228.27 142.899L235.233 148.062L229.855 155.315L231.206 164.409L222.617 165.685L216.594 173.808L209.341 168.431L200.247 169.781L198.971 161.192L192.878 156.675L199.116 148.261L197.841 139.673L206.935 138.322L212.528 130.779Z" stroke="#007D6E" stroke-opacity="0.25"/>
<path d="M221.723 199.641L222.013 199.856M222.013 199.856L227.816 204.158L236.404 202.882L237.755 211.977L244.718 217.139L239.341 224.392L240.691 233.486L232.102 234.762L226.079 242.886L218.826 237.508L209.732 238.859L208.457 230.27L202.364 225.753L208.602 217.339L207.326 208.75L216.42 207.399L222.013 199.856Z" stroke="#007D6E" stroke-opacity="0.25"/>
<path d="M50.6719 316.959L109.559 306.665L157.14 341.941L193.922 292.329L252.023 283.701L243.17 224.084L278.876 175.922L231.585 140.861L223.182 84.2751" stroke="#007D6E" stroke-opacity="0.25"/>
<path d="M117.438 203.13L124.413 208.301L125.749 217.298L134.746 215.962L141.721 221.133L147.275 213.641L155.822 212.372L154.553 203.825L159.533 197.108L152.558 191.937L151.222 182.94L142.225 184.276L135.25 179.105L130.27 185.822L121.723 187.091L122.992 195.638L117.438 203.13Z" stroke="#007D6E" stroke-opacity="0.25"/>
</svg>
