<svg width="39" height="36" viewBox="0 0 39 36" fill="none" xmlns="http://www.w3.org/2000/svg">
<path d="M20.4196 3.14766H22.0479V5.81397H20.4196V3.14766Z" fill="#0067A5"/>
<path d="M17.2175 3.14766H18.8457V5.81397H17.2175V3.14766Z" fill="#0067A5"/>
<path d="M14.0173 3.14766H15.6455V5.81397H14.0173V3.14766Z" fill="#0067A5"/>
<path d="M20.4196 7.52164H22.0479V10.1878H20.4196V7.52164Z" fill="#0067A5"/>
<path d="M17.2175 7.52164H18.8457V10.1878H17.2175V7.52164Z" fill="#0067A5"/>
<path d="M14.0173 7.52164H15.6455V10.1878H14.0173V7.52164Z" fill="#0067A5"/>
<path d="M33.6003 22.9417H35.2285V25.608H33.6003V22.9417Z" fill="#0067A5"/>
<path d="M30.4001 22.9417H32.0283V25.608H30.4001V22.9417Z" fill="#0067A5"/>
<path d="M27.1989 22.9417H28.8271V25.608H27.1989V22.9417Z" fill="#0067A5"/>
<path d="M33.6003 27.3154H35.2285V29.9817H33.6003V27.3154Z" fill="#0067A5"/>
<path d="M30.4001 27.3154H32.0283V29.9817H30.4001V27.3154Z" fill="#0067A5"/>
<path d="M27.1989 27.3154H28.8271V29.9817H27.1989V27.3154Z" fill="#0067A5"/>
<path d="M-0.00192261 19.7939H2.13293C2.12251 19.549 2.11642 19.3035 2.11642 19.059C2.11642 12.8818 5.48104 7.19175 10.8975 4.20934C10.9742 4.16712 11.0526 4.12587 11.1306 4.08451V0H24.9346V3.16727C28.136 4.35133 30.8782 6.4509 32.8672 9.24497C34.9153 12.1222 35.998 15.5159 35.998 19.0591C35.998 19.3035 35.9919 19.5489 35.9815 19.7941H38.1162V34.2489H26.5634C24.2187 35.4101 21.6941 36 19.0571 36C16.4351 36 13.921 35.417 11.5848 34.2669L11.5937 34.2489H-0.00192261V19.7939ZM23.3063 1.62825H12.7588V12.8265H23.3063V1.62825ZM36.488 21.4222H25.9405V32.6206H36.488V21.4222ZM24.3123 33.4477V19.7939H34.3522C34.3639 19.5491 34.3697 19.3035 34.3697 19.059C34.3697 12.8747 30.6049 7.27544 24.9347 4.91611V14.4546H11.1306V5.95667C6.55937 8.72675 3.74467 13.6887 3.74467 19.059C3.74467 19.3034 3.75053 19.5491 3.76204 19.7939H13.802V33.4463C15.4768 34.0601 17.2379 34.3716 19.0571 34.3716C20.8775 34.3716 22.6383 34.0613 24.3123 33.4477ZM1.62632 32.6206H12.1738V21.4222H1.62632V32.6206Z" fill="#0067A5"/>
<path d="M9.28679 22.9417H10.915V25.608H9.28679V22.9417Z" fill="#0067A5"/>
<path d="M6.08562 22.9417H7.71387V25.608H6.08562V22.9417Z" fill="#0067A5"/>
<path d="M2.88445 22.9417H4.5127V25.608H2.88445V22.9417Z" fill="#0067A5"/>
<path d="M9.28679 27.3154H10.915V29.9817H9.28679V27.3154Z" fill="#0067A5"/>
<path d="M6.08562 27.3154H7.71387V29.9817H6.08562V27.3154Z" fill="#0067A5"/>
<path d="M2.88445 27.3154H4.5127V29.9817H2.88445V27.3154Z" fill="#0067A5"/>
</svg>
