<svg width="571" height="36" viewBox="0 0 571 36" fill="none" xmlns="http://www.w3.org/2000/svg">
<path d="M570 17L565 12L570 7L570 17Z" stroke="white" stroke-opacity="0.5"/>
<path d="M1 7L6 12L1 17L1 7Z" stroke="white" stroke-opacity="0.5"/>
<path d="M95 17L90 12L95 7L100 12L95 17Z" stroke="white" stroke-opacity="0.5"/>
<path d="M190 17L185 12L190 7L195 12L190 17Z" stroke="white" stroke-opacity="0.5"/>
<path d="M285.5 17L279 12L285.5 7L292 12L285.5 17Z" stroke="white" stroke-opacity="0.5"/>
<path d="M381 17L376 12L381 7L386 12L381 17Z" stroke="white" stroke-opacity="0.5"/>
<path d="M476 17L471 12L476 7L481 12L476 17Z" stroke="white" stroke-opacity="0.5"/>
<path d="M546 32L551.5 27L557 32H546Z" stroke="white" stroke-opacity="0.5"/>
<path d="M451 32L456.5 27L462 32H451Z" stroke="white" stroke-opacity="0.5"/>
<path d="M357 32L362 27L367 32H357Z" stroke="white" stroke-opacity="0.5"/>
<path d="M260 32L265 27L270 32H260Z" stroke="white" stroke-opacity="0.5"/>
<path d="M165 32L170.5 27L176 32H165Z" stroke="white" stroke-opacity="0.5"/>
<path d="M71 32L76 27L81 32H71Z" stroke="white" stroke-opacity="0.5"/>
<path d="M490 32L495 27L500 32H490Z" stroke="white" stroke-opacity="0.5"/>
<path d="M395 32L400.5 27L406 32H395Z" stroke="white" stroke-opacity="0.5"/>
<path d="M301 32L306 27L311 32H301Z" stroke="white" stroke-opacity="0.5"/>
<path d="M204 32L209 27L214 32H204Z" stroke="white" stroke-opacity="0.5"/>
<path d="M109 32L114.5 27L120 32H109Z" stroke="white" stroke-opacity="0.5"/>
<path d="M14 32L19.5 27L25 32H14Z" stroke="white" stroke-opacity="0.5"/>
<path d="M570 1L568 3L561.757 9L555.514 3L553.954 1.5L545.11 1.5L530.023 1.5L523.26 8L516.497 1.5L489.965 1.5L483.202 8L478 3L478 1" stroke="url(#paint0_linear_174_2814)"/>
<path d="M474 1L474 3L467.688 9L461.376 3L459.798 1.5L450.855 1.5L435.601 1.5L428.763 8L421.925 1.5L395.098 1.5L388.26 8L383 3L383 1" stroke="url(#paint1_linear_174_2814)"/>
<path d="M379 1L379 3L372.827 9L366.653 3L365.11 1.5L356.364 1.5L341.445 1.5L334.757 8L328.069 1.5L301.832 1.5L295.145 8L290 3L290 1" stroke="url(#paint2_linear_174_2814)"/>
<path d="M282 1L282 3L275.827 9L269.653 3L268.11 1.5L259.364 1.5L244.445 1.5L237.757 8L231.069 1.5L204.832 1.5L198.145 8L193 3L193 1" stroke="url(#paint3_linear_174_2814)"/>
<path d="M188 1L188 3L181.757 9L175.514 3L173.954 1.5L165.11 1.5L150.023 1.5L143.26 8L136.497 1.5L109.965 1.5L103.202 8L98 3L98 1" stroke="url(#paint4_linear_174_2814)"/>
<path d="M93 1L93 3L86.7572 9L80.5144 3L78.9538 1.5L70.1098 1.5L55.0231 1.5L48.2601 8L41.4971 1.5L14.9653 1.5L8.20231 8L3 3L1 0.999996" stroke="url(#paint5_linear_174_2814)"/>
<path d="M554 23.8889L562.296 15L568 21.1111L568 30L559.704 30L554 23.8889Z" stroke="white" stroke-opacity="0.5"/>
<path d="M459 23.8889L467.296 15L473 21.1111L473 30L464.704 30L459 23.8889Z" stroke="white" stroke-opacity="0.5"/>
<path d="M364 23.8889L372.296 15L378 21.1111L378 30L369.704 30L364 23.8889Z" stroke="white" stroke-opacity="0.5"/>
<path d="M267 23.8889L275.296 15L281 21.1111L281 30L272.704 30L267 23.8889Z" stroke="white" stroke-opacity="0.5"/>
<path d="M174 23.8889L182.296 15L188 21.1111L188 30L179.704 30L174 23.8889Z" stroke="white" stroke-opacity="0.5"/>
<path d="M79 23.8889L87.2963 15L93 21.1111L93 30L84.7037 30L79 23.8889Z" stroke="white" stroke-opacity="0.5"/>
<path d="M487 11.7037L495.296 20L501 14.2963L501 6L492.704 6L487 11.7037Z" stroke="white" stroke-opacity="0.5"/>
<path d="M392 11.7037L400.889 20L407 14.2963L407 6L398.111 6L392 11.7037Z" stroke="white" stroke-opacity="0.5"/>
<path d="M298 11.7037L306.296 20L312 14.2963L312 6L303.704 6L298 11.7037Z" stroke="white" stroke-opacity="0.5"/>
<path d="M201 11.7037L209.296 20L215 14.2963L215 6L206.704 6L201 11.7037Z" stroke="white" stroke-opacity="0.5"/>
<path d="M107 11.7037L115.296 20L121 14.2963L121 6L112.704 6L107 11.7037Z" stroke="white" stroke-opacity="0.5"/>
<path d="M12 11.7037L20.2963 20L26 14.2963L26 6L17.7037 6L12 11.7037Z" stroke="white" stroke-opacity="0.5"/>
<path d="M560 11.7037L551.704 20L546 14.2963L546 6L554.296 6L560 11.7037Z" stroke="white" stroke-opacity="0.5"/>
<path d="M465 11.7037L456.704 20L451 14.2963L451 6L459.296 6L465 11.7037Z" stroke="white" stroke-opacity="0.5"/>
<path d="M370 11.7037L361.704 20L356 14.2963L356 6L364.296 6L370 11.7037Z" stroke="white" stroke-opacity="0.5"/>
<path d="M273 11.7037L264.704 20L259 14.2963L259 6L267.296 6L273 11.7037Z" stroke="white" stroke-opacity="0.5"/>
<path d="M179 11.7037L170.111 20L164 14.2963L164 6L172.889 6L179 11.7037Z" stroke="white" stroke-opacity="0.5"/>
<path d="M84 11.7037L76.2963 20L71 14.2963L71 6L78.7037 6L84 11.7037Z" stroke="white" stroke-opacity="0.5"/>
<path d="M493 22.8889L484.704 14L479 20.1111L479 29L487.296 29L493 22.8889Z" stroke="white" stroke-opacity="0.5"/>
<path d="M398 22.8889L389.704 14L384 20.1111L384 29L392.296 29L398 22.8889Z" stroke="white" stroke-opacity="0.5"/>
<path d="M304 22.8889L295.704 14L290 20.1111L290 29L298.296 29L304 22.8889Z" stroke="white" stroke-opacity="0.5"/>
<path d="M207 22.8889L198.704 14L193 20.1111L193 29L201.296 29L207 22.8889Z" stroke="white" stroke-opacity="0.5"/>
<path d="M112 22.8889L103.704 14L98 20.1111L98 29L106.296 29L112 22.8889Z" stroke="white" stroke-opacity="0.5"/>
<path d="M17 22.8889L8.5 15L4 20.1111L4 29L11.7037 29L17 22.8889Z" stroke="white" stroke-opacity="0.5"/>
<path d="M548 24.2609L542.366 30L534.171 30L534.171 20.087L527 12.7826L533.659 6L541.341 6L541.341 17.4783L548 24.2609Z" stroke="white" stroke-opacity="0.5"/>
<path d="M453 24.2609L447.366 30L439.171 30L439.171 20.087L432 12.7826L438.659 6L446.341 6L446.341 17.4783L453 24.2609Z" stroke="white" stroke-opacity="0.5"/>
<path d="M359 24.2609L353.366 30L345.171 30L345.171 20.087L338 12.7826L344.659 6L352.341 6L352.341 17.4783L359 24.2609Z" stroke="white" stroke-opacity="0.5"/>
<path d="M262 24.2609L256.366 30L248.171 30L248.171 20.087L241 12.7826L247.659 6L255.341 6L255.341 17.4783L262 24.2609Z" stroke="white" stroke-opacity="0.5"/>
<path d="M167 24.2609L161.366 30L153.171 30L153.171 20.087L146 12.7826L152.659 6L160.341 6L160.341 17.4783L167 24.2609Z" stroke="white" stroke-opacity="0.5"/>
<path d="M73 24.2609L67.0976 30L58.5122 30L58.5122 20.087L51 12.7826L57.9756 6L66.0244 6L66.0244 17.4783L73 24.2609Z" stroke="white" stroke-opacity="0.5"/>
<path d="M520 12.7391L514.098 7L505.512 7L505.512 16.913L498 24.2174L504.976 31L513.024 31L513.024 19.5217L520 12.7391Z" stroke="white" stroke-opacity="0.5"/>
<path d="M426 12.7391L420.366 7L412.171 7L412.171 16.913L405 24.2174L411.659 31L419.341 31L419.341 19.5217L426 12.7391Z" stroke="white" stroke-opacity="0.5"/>
<path d="M331 12.7391L325.366 7L317.171 7L317.171 16.913L310 24.2174L316.659 31L324.341 31L324.341 19.5217L331 12.7391Z" stroke="white" stroke-opacity="0.5"/>
<path d="M234 12.7391L228.366 7L220.171 7L220.171 16.913L213 24.2174L219.659 31L227.341 31L227.341 19.5217L234 12.7391Z" stroke="white" stroke-opacity="0.5"/>
<path d="M139 12.7391L133.366 7L125.171 7L125.171 16.913L118 24.2174L124.659 31L132.341 31L132.341 19.5217L139 12.7391Z" stroke="white" stroke-opacity="0.5"/>
<path d="M44 12.7391L38.3659 7L30.1707 7L30.1707 16.913L23 24.2174L29.6585 31L37.3415 31L37.3415 19.5217L44 12.7391Z" stroke="white" stroke-opacity="0.5"/>
<path d="M529.394 29.3046L517.581 29.3046L517.581 21.183L523.487 15.2764L529.394 21.183L529.394 29.3046Z" stroke="white" stroke-opacity="0.5"/>
<path d="M434.375 29.3046L422.562 29.3046L422.562 21.183L428.469 15.2764L434.375 21.183L434.375 29.3046Z" stroke="white" stroke-opacity="0.5"/>
<path d="M339.358 29.3046L327.545 29.3046L327.545 21.183L333.451 15.2764L339.358 21.183L339.358 29.3046Z" stroke="white" stroke-opacity="0.5"/>
<path d="M244.34 29.3046L232.527 29.3046L232.527 21.183L238.434 15.2764L244.34 21.183L244.34 29.3046Z" stroke="white" stroke-opacity="0.5"/>
<path d="M149.323 29.3046L137.509 29.3046L137.509 21.183L143.416 15.2764L149.323 21.183L149.323 29.3046Z" stroke="white" stroke-opacity="0.5"/>
<path d="M54.3041 29.3046L42.4908 29.3046L42.4908 21.183L48.3975 15.2764L54.3041 21.183L54.3041 29.3046Z" stroke="white" stroke-opacity="0.5"/>
<defs>
<linearGradient id="paint0_linear_174_2814" x1="524" y1="9" x2="524" y2="1" gradientUnits="userSpaceOnUse">
<stop stop-color="white" stop-opacity="0.5"/>
<stop offset="0.75" stop-color="white" stop-opacity="0.1"/>
<stop offset="0.885" stop-color="white" stop-opacity="0"/>
</linearGradient>
<linearGradient id="paint1_linear_174_2814" x1="428.5" y1="9" x2="428.5" y2="1" gradientUnits="userSpaceOnUse">
<stop stop-color="white" stop-opacity="0.5"/>
<stop offset="0.75" stop-color="white" stop-opacity="0.1"/>
<stop offset="0.885" stop-color="white" stop-opacity="0"/>
</linearGradient>
<linearGradient id="paint2_linear_174_2814" x1="334.5" y1="9" x2="334.5" y2="1" gradientUnits="userSpaceOnUse">
<stop stop-color="white" stop-opacity="0.5"/>
<stop offset="0.75" stop-color="white" stop-opacity="0.1"/>
<stop offset="0.885" stop-color="white" stop-opacity="0"/>
</linearGradient>
<linearGradient id="paint3_linear_174_2814" x1="237.5" y1="9" x2="237.5" y2="1" gradientUnits="userSpaceOnUse">
<stop stop-color="white" stop-opacity="0.5"/>
<stop offset="0.75" stop-color="white" stop-opacity="0.1"/>
<stop offset="0.885" stop-color="white" stop-opacity="0"/>
</linearGradient>
<linearGradient id="paint4_linear_174_2814" x1="143" y1="9" x2="143" y2="1" gradientUnits="userSpaceOnUse">
<stop stop-color="white" stop-opacity="0.5"/>
<stop offset="0.75" stop-color="white" stop-opacity="0.1"/>
<stop offset="0.885" stop-color="white" stop-opacity="0"/>
</linearGradient>
<linearGradient id="paint5_linear_174_2814" x1="47" y1="9" x2="47" y2="1" gradientUnits="userSpaceOnUse">
<stop stop-color="white" stop-opacity="0.5"/>
<stop offset="0.75" stop-color="white" stop-opacity="0.1"/>
<stop offset="0.885" stop-color="white" stop-opacity="0"/>
</linearGradient>
</defs>
</svg>
