<svg width="236" height="155" viewBox="0 0 236 155" fill="none" xmlns="http://www.w3.org/2000/svg">
<path d="M132.351 -14.8289H132.56M132.56 -14.8289L138.938 -14.7123L143.027 -10.4297L132.56 0.0447237V-14.8289Z" stroke="white" stroke-width="1.4"/>
<path d="M130.946 20.2661H130.736M130.736 20.2661L124.358 20.1496L120.27 15.8669L130.736 5.39253V20.2661Z" stroke="white" stroke-width="1.4"/>
<path d="M138.368 35.0187L138.22 34.8705M138.22 34.8705L133.792 30.2749L133.927 24.3533L148.729 24.3533L138.22 34.8705Z" stroke="white" stroke-width="1.4"/>
<path d="M164.878 10.7252L165.026 10.8733M165.026 10.8733L169.454 15.469L169.319 21.3906H154.517L165.026 10.8733Z" stroke="white" stroke-width="1.4"/>
<path d="M150.562 -2.34897L144.345 -8.57043L133.983 1.79867V21.0556L152.338 20.7593L162.995 10.0939L157.963 5.05753V-2.34897H150.562Z" stroke="white" stroke-width="1.4"/>
<path d="M169.748 32.1888V23.3903H155.094L141.488 37.007L154.676 49.7857L169.748 49.7857V42.6631L174.981 37.426L169.748 32.1888Z" stroke="white" stroke-width="1.4"/>
<path d="M113.756 -14.2352H105.378V-1.45984L118.742 11.9144L130.511 0.13708L130.511 -14.2352L123.729 -14.2352L118.742 -19.2256L113.756 -14.2352Z" stroke="white" stroke-width="1.4"/>
<path d="M168.534 -3.27938H160.998V2.58627L164.766 6.35704L168.534 2.58627V-3.27938Z" stroke="white" stroke-width="1.4"/>
<path d="M209.874 17.243L204.545 11.9103L200.4 16.0579L200.4 21.3906L205.729 21.3906L209.874 17.243Z" stroke="white" stroke-width="1.4"/>
<path d="M184.231 31.4636L178.788 36.9103L184.231 42.357L189.673 36.9103L184.231 31.4636Z" stroke="white" stroke-width="1.4"/>
<path d="M187.081 29.3897L192.41 34.7224L196.555 30.5748L196.555 25.2421L191.226 25.2421L187.081 29.3897Z" stroke="white" stroke-width="1.4"/>
<path d="M176.423 34.7223L181.752 29.3896L177.607 25.2419L172.279 25.2419L172.279 30.5746L176.423 34.7223Z" stroke="white" stroke-width="1.4"/>
<path d="M173.165 -3.79146H173.461M173.461 -3.79146H179.381L184.414 -8.82788L189.743 -3.4952H196.848V3.9113L202.177 9.24398L197.144 14.2804V22.5757H189.743L184.414 27.9084L179.381 22.8719H173.165V14.2804L168.132 9.24398L173.461 3.9113V-3.79146Z" stroke="white" stroke-width="1.4"/>
<path d="M132.351 88.6043H132.56M132.56 88.6043L138.938 88.4877L143.027 84.205L132.56 73.7307V88.6043Z" stroke="white" stroke-width="1.4"/>
<path d="M130.946 53.326H130.736M130.736 53.326L124.358 53.4426L120.27 57.7253L130.736 68.1996V53.326Z" stroke="white" stroke-width="1.4"/>
<path d="M138.368 38.5736L138.22 38.7217M138.22 38.7217L133.792 43.3174L133.927 49.239L148.729 49.239L138.22 38.7217Z" stroke="white" stroke-width="1.4"/>
<path d="M164.878 62.8669L165.026 62.7188M165.026 62.7188L169.454 58.1232L169.319 52.2016H154.517L165.026 62.7188Z" stroke="white" stroke-width="1.4"/>
<path d="M166.655 105.232L166.803 105.381M166.803 105.381L171.984 110.565V117.675H196.259V91.3081H189.747L184.714 86.2717L179.089 91.3081H171.984V100.196L166.803 105.381Z" stroke="white" stroke-width="1.4"/>
<path d="M150.665 76.7915L144.448 83.0129L134.087 72.6438V53.3869L152.442 53.6832L163.099 64.3486L158.066 69.385V76.7915H150.665Z" stroke="white" stroke-width="1.4"/>
<path d="M113.908 87.9281L105.58 88.0222L105.556 75.3212L118.817 61.8746L130.538 73.4511L130.565 87.7398L123.823 87.816L118.875 92.8334L113.908 87.9281Z" stroke="white" stroke-width="1.4"/>
<path d="M142.378 125.971L137.049 131.303L132.904 127.156V121.823H138.233L142.378 125.971Z" stroke="white" stroke-width="1.4"/>
<path d="M119.581 113.824L124.91 108.491L129.055 112.639V117.971H123.726L119.581 113.824Z" stroke="white" stroke-width="1.4"/>
<path d="M124.909 101.973L119.58 96.6406L123.725 92.4929L129.053 92.4929L129.053 97.8256L124.909 101.973Z" stroke="white" stroke-width="1.4"/>
<path d="M168.534 117.756H160.998V111.89L164.766 108.119L168.534 111.89V117.756Z" stroke="white" stroke-width="1.4"/>
<path d="M168.534 76.872H160.998V71.0064L164.766 67.2356L168.534 71.0064V76.872Z" stroke="white" stroke-width="1.4"/>
<path d="M196.602 80.8335L196.602 88.375L190.74 88.375L186.972 84.6043L190.74 80.8335L196.602 80.8335Z" stroke="white" stroke-width="1.4"/>
<path d="M209.874 56.3497L204.545 61.6824L200.4 57.5347L200.4 52.2021L205.729 52.2021L209.874 56.3497Z" stroke="white" stroke-width="1.4"/>
<path d="M157.04 80.8335L157.04 88.375L151.179 88.375L147.411 84.6043L151.179 80.8335L157.04 80.8335Z" stroke="white" stroke-width="1.4"/>
<path d="M160.997 91.7444H168.533V97.6101L164.765 101.381L160.997 97.6101V91.7444Z" stroke="white" stroke-width="1.4"/>
<path d="M168.723 88.3456H161.026V80.6428H168.723V88.3456Z" stroke="white" stroke-width="1.4"/>
<path d="M123.257 105.415L117.814 110.861L112.372 105.415L117.814 99.968L123.257 105.415Z" stroke="white" stroke-width="1.4"/>
<path d="M171.899 88.3751L171.899 80.8336L177.761 80.8336L181.529 84.6044L177.761 88.3751L171.899 88.3751Z" stroke="white" stroke-width="1.4"/>
<path d="M187.081 44.203L192.41 38.8704L196.555 43.018L196.555 48.3507L191.226 48.3507L187.081 44.203Z" stroke="white" stroke-width="1.4"/>
<path d="M176.423 38.8699L181.752 44.2026L177.607 48.3502L172.279 48.3502L172.279 43.0175L176.423 38.8699Z" stroke="white" stroke-width="1.4"/>
<path d="M133.201 118.268H133.497M133.497 118.268H139.418L144.45 123.304L149.779 117.971H156.884V110.565L162.213 105.232L157.18 100.196V91.9005H149.779L144.45 86.5678L139.418 91.6043H133.201V100.196L128.168 105.232L133.497 110.565V118.268Z" stroke="white" stroke-width="1.4"/>
<path d="M173.165 77.384H173.461M173.461 77.384H179.381L184.414 82.4204L189.743 77.0877H196.848V69.6812L202.177 64.3485L197.144 59.3121V51.0168H189.743L184.414 45.6842L179.381 50.7206H173.165V59.3121L168.132 64.3485L173.461 69.6812V77.384Z" stroke="white" stroke-width="1.4"/>
<path d="M117.807 -83.4854L151.555 -47.9341H200.106V2.72633L234.151 36.7962L199.218 71.7549V120.934H150.963L117.807 154.115" stroke="white" stroke-width="1.4"/>
<path d="M103.634 -14.8289H103.425M103.425 -14.8289L97.047 -14.7123L92.9583 -10.4297L103.425 0.0447237V-14.8289Z" stroke="white" stroke-width="1.4"/>
<path d="M105.023 20.2661H105.232M105.232 20.2661L111.61 20.1496L115.699 15.8669L105.232 5.39253V20.2661Z" stroke="white" stroke-width="1.4"/>
<path d="M97.6017 35.0187L97.7497 34.8705M97.7497 34.8705L102.177 30.2749L102.042 24.3533L87.2402 24.3533L97.7497 34.8705Z" stroke="white" stroke-width="1.4"/>
<path d="M71.0956 10.7252L70.9475 10.8733M70.9475 10.8733L66.52 15.469L66.6549 21.3906H81.457L70.9475 10.8733Z" stroke="white" stroke-width="1.4"/>
<path d="M85.7918 -2.34897L92.0087 -8.57043L102.37 1.79867V21.0556L84.0155 20.7593L73.358 10.0939L78.3907 5.05753V-2.34897H85.7918Z" stroke="white" stroke-width="1.4"/>
<path d="M66.2212 32.1888V23.3903H80.8745L94.4812 37.007L81.2932 49.7857L66.2212 49.7857V42.6631L60.9879 37.426L66.2212 32.1888Z" stroke="white" stroke-width="1.4"/>
<path d="M67.4357 -3.27938H74.9717V2.58627L71.2037 6.35704L67.4357 2.58627V-3.27938Z" stroke="white" stroke-width="1.4"/>
<path d="M26.095 17.243L31.4238 11.9103L35.5684 16.0579L35.5684 21.3906L30.2396 21.3906L26.095 17.243Z" stroke="white" stroke-width="1.4"/>
<path d="M51.7341 31.4636L57.1768 36.9103L51.7341 42.357L46.2914 36.9103L51.7341 31.4636Z" stroke="white" stroke-width="1.4"/>
<path d="M48.8923 29.3897L43.5635 34.7224L39.4189 30.5748L39.4189 25.2421L44.7477 25.2421L48.8923 29.3897Z" stroke="white" stroke-width="1.4"/>
<path d="M59.5504 34.7223L54.2217 29.3896L58.3663 25.2419L63.695 25.2419L63.695 30.5746L59.5504 34.7223Z" stroke="white" stroke-width="1.4"/>
<path d="M62.8042 -3.79146H62.5082M62.5082 -3.79146H56.5873L51.5546 -8.82788L46.2259 -3.4952H39.1209V3.9113L33.7921 9.24398L38.8248 14.2804V22.5757H46.2259L51.5546 27.9084L56.5873 22.8719H62.8042V14.2804L67.8369 9.24398L62.5082 3.9113V-3.79146Z" stroke="white" stroke-width="1.4"/>
<path d="M29.8674 24.9304L25.1228 20.1823L8.25293 37.0645L25.1228 53.9468L29.8674 49.1987H36.9843V41.8127L41.729 37.0645L36.9843 32.3164V24.9304H29.8674Z" stroke="white" stroke-width="1.4"/>
<path d="M106.044 128.334L101.3 133.083L118.17 149.965L135.039 133.083L130.295 128.334L130.295 121.212L122.914 121.212L118.17 116.464L113.425 121.212L106.044 121.212L106.044 128.334Z" stroke="white" stroke-width="1.4"/>
<path d="M206.473 48.9352L211.218 53.6833L228.088 36.8011L211.218 19.9188L206.473 24.6669L199.356 24.6669L199.356 32.0529L194.612 36.8011L199.356 41.5492L199.356 48.9352L206.473 48.9352Z" stroke="white" stroke-width="1.4"/>
<path d="M104.162 88.6043H103.952M103.952 88.6043L97.5743 88.4877L93.4856 84.205L103.952 73.7307V88.6043Z" stroke="white" stroke-width="1.4"/>
<path d="M105.023 53.326H105.232M105.232 53.326L111.61 53.4426L115.699 57.7253L105.232 68.1996V53.326Z" stroke="white" stroke-width="1.4"/>
<path d="M97.6017 38.5736L97.7497 38.7217M97.7497 38.7217L102.177 43.3174L102.042 49.239L87.2402 49.239L97.7497 38.7217Z" stroke="white" stroke-width="1.4"/>
<path d="M71.0956 62.8669L70.9475 62.7188M70.9475 62.7188L66.52 58.1232L66.6549 52.2016H81.457L70.9475 62.7188Z" stroke="white" stroke-width="1.4"/>
<path d="M69.3145 105.232L69.1664 105.381M69.1664 105.381L63.9857 110.565V117.675H39.7103V91.3081H46.2232L51.2559 86.2717L56.8807 91.3081H63.9857V100.196L69.1664 105.381Z" stroke="white" stroke-width="1.4"/>
<path d="M85.3045 76.7915L91.5214 83.0129L101.883 72.6438V53.3869L83.5282 53.6832L72.8707 64.3486L77.9034 69.385V76.7915H85.3045Z" stroke="white" stroke-width="1.4"/>
<path d="M93.596 125.971L98.9248 131.303L103.069 127.156V121.823H97.7406L93.596 125.971Z" stroke="white" stroke-width="1.4"/>
<path d="M116.388 113.824L111.06 108.491L106.915 112.639V117.971H112.244L116.388 113.824Z" stroke="white" stroke-width="1.4"/>
<path d="M111.061 101.973L116.39 96.6406L112.245 92.4929L106.916 92.4929L106.916 97.8256L111.061 101.973Z" stroke="white" stroke-width="1.4"/>
<path d="M67.4357 117.756H74.9717V111.89L71.2037 108.119L67.4357 111.89V117.756Z" stroke="white" stroke-width="1.4"/>
<path d="M67.4357 76.872H74.9717V71.0064L71.2037 67.2356L67.4357 71.0064V76.872Z" stroke="white" stroke-width="1.4"/>
<path d="M39.3682 80.8335L39.3682 88.375L45.2295 88.375L48.9975 84.6043L45.2295 80.8335L39.3682 80.8335Z" stroke="white" stroke-width="1.4"/>
<path d="M26.095 56.3497L31.4238 61.6824L35.5684 57.5347L35.5684 52.2021L30.2396 52.2021L26.095 56.3497Z" stroke="white" stroke-width="1.4"/>
<path d="M78.9297 80.8335L78.9297 88.375L84.791 88.375L88.559 84.6043L84.791 80.8335L78.9297 80.8335Z" stroke="white" stroke-width="1.4"/>
<path d="M74.9725 91.7444H67.4365V97.6101L71.2045 101.381L74.9725 97.6101V91.7444Z" stroke="white" stroke-width="1.4"/>
<path d="M67.2453 88.3456H74.9424V80.6428H67.2453V88.3456Z" stroke="white" stroke-width="1.4"/>
<path d="M64.0732 88.3751L64.0732 80.8336L58.2119 80.8336L54.4439 84.6044L58.2119 88.3751L64.0732 88.3751Z" stroke="white" stroke-width="1.4"/>
<path d="M48.8923 44.203L43.5635 38.8704L39.4189 43.018L39.4189 48.3507L44.7477 48.3507L48.8923 44.203Z" stroke="white" stroke-width="1.4"/>
<path d="M59.5504 38.8699L54.2217 44.2026L58.3663 48.3502L63.695 48.3502L63.695 43.0175L59.5504 38.8699Z" stroke="white" stroke-width="1.4"/>
<path d="M102.773 118.268H102.477M102.477 118.268H96.5561L91.5234 123.304L86.1946 117.971H79.0896V110.565L73.7609 105.232L78.7936 100.196V91.9005H86.1946L91.5234 86.5678L96.5561 91.6043H102.773V100.196L107.806 105.232L102.477 110.565V118.268Z" stroke="white" stroke-width="1.4"/>
<path d="M62.8042 77.384H62.5082M62.5082 77.384H56.5873L51.5546 82.4204L46.2259 77.0877H39.1209V69.6812L33.7921 64.3485L38.8248 59.3121V51.0168H46.2259L51.5546 45.6842L56.5873 50.7206H62.8042V59.3121L67.8369 64.3485L62.5082 69.6812V77.384Z" stroke="white" stroke-width="1.4"/>
<path d="M118.163 -83.4854L84.4143 -47.9341H35.8635V2.72633L1.81868 36.7962L36.7516 71.7549V120.934H85.0064L118.163 154.115" stroke="white" stroke-width="1.4"/>
<path d="M129.767 24.1394H122.65L117.378 18.8636L112.107 24.1394H104.99V31.7891L99.9814 36.8011L104.99 41.813V48.6714H112.107L117.378 53.9471L122.65 48.6714H129.767V41.813L134.775 36.8011L129.767 31.7891V24.1394Z" stroke="white" stroke-width="1.4"/>
</svg>
