<svg width="254" height="402" viewBox="0 0 254 402" fill="none" xmlns="http://www.w3.org/2000/svg">
<path d="M80.9114 116.583L81.2641 116.583M81.2641 116.583L92.0093 116.779L98.8976 123.989L81.2641 141.623L81.2641 116.583Z" stroke="#007D6E" stroke-opacity="0.25"/>
<path d="M78.5456 175.666L78.193 175.666M78.193 175.666L67.4478 175.469L60.5594 168.26L78.193 150.626L78.193 175.666Z" stroke="#007D6E" stroke-opacity="0.25"/>
<path d="M91.0505 200.501L90.8011 200.252M90.8011 200.252L83.3418 192.515L83.5692 182.546L108.507 182.546L90.8011 200.252Z" stroke="#007D6E" stroke-opacity="0.25"/>
<path d="M135.71 159.603L135.96 159.853M135.96 159.853L143.419 167.59L143.192 177.559H118.254L135.96 159.853Z" stroke="#007D6E" stroke-opacity="0.25"/>
<path d="M138.703 88.2818L138.953 88.0324M138.953 88.0324L147.681 79.3042V67.3342H188.578V111.723H177.606L169.127 120.202L159.651 111.723H147.681V96.7606L138.953 88.0324Z" stroke="#007D6E" stroke-opacity="0.25"/>
<path d="M111.596 137.593L101.122 127.119L83.666 144.576V176.995L114.589 176.496L132.544 158.541L124.065 150.062V137.593H111.596Z" stroke="#007D6E" stroke-opacity="0.25"/>
<path d="M143.919 195.737V180.925H119.232L96.3085 203.848L118.527 225.361L143.919 225.361L143.919 213.37L152.736 204.554L143.919 195.737Z" stroke="#007D6E" stroke-opacity="0.25"/>
<path d="M49.5866 117.582L35.4724 117.582L35.4724 139.09L57.9879 161.605L77.815 141.778L77.815 117.582L66.3892 117.582L57.9879 109.181L49.5866 117.582Z" stroke="#007D6E" stroke-opacity="0.25"/>
<path d="M97.8048 53.3691L88.8273 44.3915L81.8447 51.3741V60.3516H90.8223L97.8048 53.3691Z" stroke="#007D6E" stroke-opacity="0.25"/>
<path d="M59.4012 73.8179L68.3788 82.7955L75.3613 75.8129V66.8354H66.3838L59.4012 73.8179Z" stroke="#007D6E" stroke-opacity="0.25"/>
<path d="M68.3784 93.768L59.4009 102.746L66.3834 109.728L75.361 109.728L75.361 100.751L68.3784 93.768Z" stroke="#007D6E" stroke-opacity="0.25"/>
<path d="M141.873 67.1984L129.177 67.1984V77.0732L135.525 83.4213L141.873 77.0732V67.1984Z" stroke="#007D6E" stroke-opacity="0.25"/>
<path d="M141.873 136.026L129.177 136.026V145.901L135.525 152.249L141.873 145.901V136.026Z" stroke="#007D6E" stroke-opacity="0.25"/>
<path d="M189.161 129.357L189.161 116.661L179.286 116.661L172.938 123.009L179.286 129.357L189.161 129.357Z" stroke="#007D6E" stroke-opacity="0.25"/>
<path d="M211.521 170.576L202.543 161.599L195.561 168.581L195.561 177.559L204.538 177.559L211.521 170.576Z" stroke="#007D6E" stroke-opacity="0.25"/>
<path d="M122.507 129.357L122.507 116.661L112.632 116.661L106.284 123.009L112.632 129.357L122.507 129.357Z" stroke="#007D6E" stroke-opacity="0.25"/>
<path d="M129.176 110.989L141.873 110.989V101.114L135.525 94.7657L129.176 101.114V110.989Z" stroke="#007D6E" stroke-opacity="0.25"/>
<path d="M142.194 116.711H129.227V129.678H142.194V116.711Z" stroke="#007D6E" stroke-opacity="0.25"/>
<path d="M168.321 194.516L159.151 203.686L168.321 212.855L177.49 203.686L168.321 194.516Z" stroke="#007D6E" stroke-opacity="0.25"/>
<path d="M65.5913 87.9749L56.4219 78.8054L47.2524 87.9749L56.4219 97.1443L65.5913 87.9749Z" stroke="#007D6E" stroke-opacity="0.25"/>
<path d="M147.544 116.661L147.544 129.357L157.419 129.357L163.767 123.009L157.419 116.661L147.544 116.661Z" stroke="#007D6E" stroke-opacity="0.25"/>
<path d="M173.117 191.025L182.094 200.003L189.077 193.02L189.077 184.042L180.099 184.042L173.117 191.025Z" stroke="#007D6E" stroke-opacity="0.25"/>
<path d="M155.162 200.003L164.139 191.025L157.157 184.043L148.179 184.043L148.179 193.02L155.162 200.003Z" stroke="#007D6E" stroke-opacity="0.25"/>
<path d="M82.3431 66.3368H82.8418M82.8418 66.3368H92.8169L101.296 57.858L110.273 66.8355H122.243V79.3044L131.221 88.2819L122.742 96.7607V110.726H110.273L101.296 119.703L92.8169 111.225H82.3431V96.7607L73.8643 88.2819L82.8418 79.3044V66.3368Z" stroke="#007D6E" stroke-opacity="0.25"/>
<path d="M149.675 135.165H150.174M150.174 135.165H160.149L168.628 126.686L177.605 135.663H189.575V148.132L198.553 157.11L190.074 165.589V179.554H177.605L168.628 188.531L160.149 180.052H149.675V165.589L141.196 157.11L150.174 148.132V135.165Z" stroke="#007D6E" stroke-opacity="0.25"/>
<path d="M80.9114 290.713L81.2641 290.713M81.2641 290.713L92.0093 290.517L98.8976 283.307L81.2641 265.673L81.2641 290.713Z" stroke="#007D6E" stroke-opacity="0.25"/>
<path d="M78.5456 231.322L78.193 231.322M78.193 231.322L67.4478 231.518L60.5594 238.728L78.193 256.362L78.193 231.322Z" stroke="#007D6E" stroke-opacity="0.25"/>
<path d="M91.0505 206.486L90.8011 206.736M90.8011 206.736L83.3418 214.472L83.5692 224.441L108.507 224.441L90.8011 206.736Z" stroke="#007D6E" stroke-opacity="0.25"/>
<path d="M135.71 247.384L135.96 247.135M135.96 247.135L143.419 239.398L143.192 229.429H118.254L135.96 247.135Z" stroke="#007D6E" stroke-opacity="0.25"/>
<path d="M138.703 318.706L138.953 318.955M138.953 318.955L147.681 327.683V339.653H188.578V295.264H177.606L169.127 286.785L159.651 295.264H147.681V310.227L138.953 318.955Z" stroke="#007D6E" stroke-opacity="0.25"/>
<path d="M111.77 270.826L101.296 281.299L83.8394 263.843V231.424L114.762 231.923L132.717 249.878L124.238 258.357V270.826H111.77Z" stroke="#007D6E" stroke-opacity="0.25"/>
<path d="M49.8417 289.574L35.8105 289.733L35.7705 268.351L58.1118 245.713L77.8591 265.202L77.904 289.257L66.5454 289.386L58.2092 297.832L49.8417 289.574Z" stroke="#007D6E" stroke-opacity="0.25"/>
<path d="M97.8048 353.619L88.8273 362.596L81.8447 355.614V346.636H90.8223L97.8048 353.619Z" stroke="#007D6E" stroke-opacity="0.25"/>
<path d="M59.4012 333.17L68.3788 324.192L75.3613 331.175V340.152H66.3838L59.4012 333.17Z" stroke="#007D6E" stroke-opacity="0.25"/>
<path d="M68.3784 313.22L59.4009 304.242L66.3834 297.259L75.361 297.259L75.361 306.237L68.3784 313.22Z" stroke="#007D6E" stroke-opacity="0.25"/>
<path d="M141.873 339.789L129.177 339.789V329.914L135.525 323.566L141.873 329.914V339.789Z" stroke="#007D6E" stroke-opacity="0.25"/>
<path d="M141.873 270.961L129.177 270.961V261.086L135.525 254.738L141.873 261.086V270.961Z" stroke="#007D6E" stroke-opacity="0.25"/>
<path d="M189.161 277.631L189.161 290.327L179.286 290.327L172.938 283.979L179.286 277.631L189.161 277.631Z" stroke="#007D6E" stroke-opacity="0.25"/>
<path d="M211.521 236.412L202.543 245.389L195.561 238.407L195.561 229.429L204.538 229.429L211.521 236.412Z" stroke="#007D6E" stroke-opacity="0.25"/>
<path d="M122.507 277.631L122.507 290.327L112.632 290.327L106.284 283.979L112.632 277.631L122.507 277.631Z" stroke="#007D6E" stroke-opacity="0.25"/>
<path d="M129.176 295.999L141.873 295.999V305.874L135.525 312.222L129.176 305.874V295.999Z" stroke="#007D6E" stroke-opacity="0.25"/>
<path d="M142.194 290.277H129.227V277.309H142.194V290.277Z" stroke="#007D6E" stroke-opacity="0.25"/>
<path d="M65.5923 319.013L56.4229 328.182L47.2534 319.013L56.4229 309.843L65.5923 319.013Z" stroke="#007D6E" stroke-opacity="0.25"/>
<path d="M147.544 290.327L147.544 277.631L157.419 277.631L163.767 283.979L157.419 290.327L147.544 290.327Z" stroke="#007D6E" stroke-opacity="0.25"/>
<path d="M173.117 215.963L182.094 206.985L189.077 213.968L189.077 222.945L180.099 222.945L173.117 215.963Z" stroke="#007D6E" stroke-opacity="0.25"/>
<path d="M155.162 206.985L164.139 215.963L157.157 222.945L148.179 222.945L148.179 213.968L155.162 206.985Z" stroke="#007D6E" stroke-opacity="0.25"/>
<path d="M82.3431 340.651H82.8418M82.8418 340.651H92.8169L101.296 349.13L110.273 340.152H122.243V327.683L131.221 318.706L122.742 310.227V296.262H110.273L101.296 287.284L92.8169 295.763H82.3431V310.227L73.8643 318.706L82.8418 327.683V340.651Z" stroke="#007D6E" stroke-opacity="0.25"/>
<path d="M149.675 271.823H150.174M150.174 271.823H160.149L168.628 280.302L177.605 271.324H189.575V258.855L198.553 249.878L190.074 241.399V227.434H177.605L168.628 218.456L160.149 226.935H149.675V241.399L141.196 249.878L150.174 258.855V271.823Z" stroke="#007D6E" stroke-opacity="0.25"/>
<path d="M56.4087 1L113.267 60.8504H195.062V146.137L252.419 203.494L193.566 262.347V345.14H112.269L56.4087 401" stroke="#007D6E" stroke-opacity="0.25"/>
<path d="M32.5369 116.583L32.1842 116.583M32.1842 116.583L21.439 116.779L14.5506 123.989L32.1842 141.623L32.1842 116.583Z" stroke="#007D6E" stroke-opacity="0.25"/>
<path d="M34.8752 175.666L35.2279 175.666M35.2279 175.666L45.9731 175.469L52.8615 168.26L35.2279 150.626L35.2279 175.666Z" stroke="#007D6E" stroke-opacity="0.25"/>
<path d="M22.3699 200.501L22.6193 200.252M22.6193 200.252L30.0786 192.515L29.8512 182.546L4.91357 182.546L22.6193 200.252Z" stroke="#007D6E" stroke-opacity="0.25"/>
<path d="M2.4751 137.593L12.9489 127.119L30.4053 144.576V176.995L-0.51742 176.496L-18.4725 158.541L-9.99373 150.062V137.593H2.4751Z" stroke="#007D6E" stroke-opacity="0.25"/>
<path d="M-30.4939 195.737V180.925H-5.80688L17.1168 203.848L-5.10154 225.361L-30.4939 225.361L-30.4939 213.37L-39.3107 204.554L-30.4939 195.737Z" stroke="#007D6E" stroke-opacity="0.25"/>
<path d="M15.6195 53.3691L24.597 44.3915L31.5796 51.3741V60.3516H22.602L15.6195 53.3691Z" stroke="#007D6E" stroke-opacity="0.25"/>
<path d="M54.0206 73.8179L45.0431 82.7955L38.0605 75.8129V66.8354H47.0381L54.0206 73.8179Z" stroke="#007D6E" stroke-opacity="0.25"/>
<path d="M45.0425 93.768L54.02 102.746L47.0375 109.728L38.0599 109.728L38.0599 100.751L45.0425 93.768Z" stroke="#007D6E" stroke-opacity="0.25"/>
<path d="M-9.08535 129.357L-9.08535 116.661L0.789456 116.661L7.13755 123.009L0.789456 129.357L-9.08535 129.357Z" stroke="#007D6E" stroke-opacity="0.25"/>
<path d="M31.0808 66.3368H30.582M30.582 66.3368H20.607L12.1281 57.858L3.15059 66.8355H-8.81949V79.3044L-17.797 88.2819L-9.31824 96.7607V110.726H3.15059L12.1281 119.703L20.607 111.225H31.0808V96.7607L39.5596 88.2819L30.582 79.3044V66.3368Z" stroke="#007D6E" stroke-opacity="0.25"/>
<path d="M36.5941 357.598L28.6006 365.592L57.0218 394.013L85.4431 365.591L77.4496 357.598L77.4496 345.608L65.0153 345.608L57.0218 337.614L49.0284 345.608L36.5941 345.608L36.5941 357.598Z" stroke="#007D6E" stroke-opacity="0.25"/>
<path d="M205.789 223.929L213.782 231.923L242.204 203.501L213.782 175.08L205.789 183.074L193.799 183.074L193.799 195.508L185.805 203.501L193.799 211.495L193.799 223.929L205.789 223.929Z" stroke="#007D6E" stroke-opacity="0.25"/>
<path d="M76.5617 49.8491L84.5552 41.8556L56.1339 13.4343L27.7127 41.8556L35.7061 49.8491L35.7061 61.8393L48.1404 61.8393L56.1339 69.8328L64.1274 61.8393L76.5617 61.8393L76.5617 49.8491Z" stroke="#007D6E" stroke-opacity="0.25"/>
<path d="M33.4246 290.713L33.0719 290.713M33.0719 290.713L22.3267 290.517L15.4383 283.307L33.0719 265.673L33.0719 290.713Z" stroke="#007D6E" stroke-opacity="0.25"/>
<path d="M34.8752 231.322L35.2279 231.322M35.2279 231.322L45.9731 231.518L52.8615 238.728L35.2279 256.362L35.2279 231.322Z" stroke="#007D6E" stroke-opacity="0.25"/>
<path d="M22.3699 206.486L22.6193 206.736M22.6193 206.736L30.0786 214.472L29.8512 224.441L4.91357 224.441L22.6193 206.736Z" stroke="#007D6E" stroke-opacity="0.25"/>
<path d="M1.65088 270.826L12.1247 281.299L29.5811 263.843V231.424L-1.34164 231.923L-19.2968 249.878L-10.8179 258.357V270.826H1.65088Z" stroke="#007D6E" stroke-opacity="0.25"/>
<path d="M15.6195 353.619L24.597 362.596L31.5796 355.614V346.636H22.602L15.6195 353.619Z" stroke="#007D6E" stroke-opacity="0.25"/>
<path d="M54.0206 333.17L45.0431 324.192L38.0605 331.175V340.152H47.0381L54.0206 333.17Z" stroke="#007D6E" stroke-opacity="0.25"/>
<path d="M45.0425 313.22L54.02 304.242L47.0375 297.259L38.0599 297.259L38.0599 306.237L45.0425 313.22Z" stroke="#007D6E" stroke-opacity="0.25"/>
<path d="M-9.08535 277.631L-9.08535 290.327L0.789456 290.327L7.13755 283.979L0.789456 277.631L-9.08535 277.631Z" stroke="#007D6E" stroke-opacity="0.25"/>
<path d="M31.0808 340.651H30.582M30.582 340.651H20.6069L12.1281 349.13L3.15059 340.152H-8.81949V327.683L-17.797 318.706L-9.31824 310.227V296.262H3.15059L12.1281 287.284L20.6069 295.763H31.0808V310.227L39.5596 318.706L30.582 327.683V340.651Z" stroke="#007D6E" stroke-opacity="0.25"/>
<path d="M57.0098 1L0.151909 60.8504H-81.6436V146.137L-139 203.494L-80.1473 262.347V345.14H1.14942L57.0098 401" stroke="#007D6E" stroke-opacity="0.25"/>
<path d="M76.5616 182.186H64.5714L55.6898 173.304L46.8081 182.186H34.8179V195.064L26.3804 203.501L34.8179 211.939V223.485H46.8081L55.6898 232.367L64.5714 223.485H76.5616V211.939L84.9992 203.501L76.5616 195.064V182.186Z" stroke="#007D6E" stroke-opacity="0.25"/>
</svg>
