<svg width="428" height="428" viewBox="0 0 428 428" fill="none" xmlns="http://www.w3.org/2000/svg">
<path d="M155.315 246.106L155.125 245.915M155.125 245.915L149.436 240.014L149.609 232.411H168.63L155.125 245.915Z" stroke="#007D6E" stroke-opacity="0.25"/>
<path d="M188.456 215.517L188.646 215.707M188.646 215.707L194.336 221.608L194.162 229.212H175.142L188.646 215.707Z" stroke="#007D6E" stroke-opacity="0.25"/>
<path d="M195.106 195.377L195.106 195.646M195.106 195.646L194.956 203.842L189.457 209.096L176.008 195.646L195.106 195.646Z" stroke="#007D6E" stroke-opacity="0.25"/>
<path d="M148.963 193.349L148.963 193.08M148.963 193.08L149.113 184.884L154.612 179.63L168.062 193.08L148.963 193.08Z" stroke="#007D6E" stroke-opacity="0.25"/>
<path d="M108.883 230.201L108.614 230.201M108.614 230.201L99.1989 230.201L92.7431 236.656L70.6857 214.599L94.626 190.659L100.544 196.576L109.69 196.576L110.228 206.26L116.683 212.716L108.614 220.786L108.614 230.201Z" stroke="#007D6E" stroke-opacity="0.25"/>
<path d="M150.099 218.225L150.099 229.523L168.928 229.523L186.413 212.038L169.466 195.63H150.099V204.775L143.374 211.5L150.099 218.225Z" stroke="#007D6E" stroke-opacity="0.25"/>
<path d="M164.023 169.433L156.034 177.422L169.349 190.737H194.075L193.695 167.151L180 153.456L173.533 159.923H164.023V169.433Z" stroke="#007D6E" stroke-opacity="0.25"/>
<path d="M172.748 262.461L180.36 270.073L191.96 258.474V234.187H170.573L157.524 247.237L163.686 253.399V262.461H172.748Z" stroke="#007D6E" stroke-opacity="0.25"/>
<path d="M112.11 271.088V280.771H119.642L124.484 275.929L119.642 271.088H112.11Z" stroke="#007D6E" stroke-opacity="0.25"/>
<path d="M143.852 280.771V271.088H136.32L131.478 275.929L136.32 280.771H143.852Z" stroke="#007D6E" stroke-opacity="0.25"/>
<path d="M149.77 265.17H159.454V257.638L154.612 252.796L149.77 257.638V265.17Z" stroke="#007D6E" stroke-opacity="0.25"/>
<path d="M95.8014 239.862L102.649 246.709L107.975 241.383V234.536H101.127L95.8014 239.862Z" stroke="#007D6E" stroke-opacity="0.25"/>
<path d="M132.922 202.741L139.77 209.588L145.096 204.262V197.415H138.248L132.922 202.741Z" stroke="#007D6E" stroke-opacity="0.25"/>
<path d="M103.822 180.834L96.9746 187.682L102.3 193.008L109.148 193.008L109.148 186.16L103.822 180.834Z" stroke="#007D6E" stroke-opacity="0.25"/>
<path d="M113.994 146.544L113.994 156.228L121.526 156.228L126.368 151.386L121.526 146.544L113.994 146.544Z" stroke="#007D6E" stroke-opacity="0.25"/>
<path d="M139.77 216.783L132.923 223.63L138.249 228.956L145.096 228.956L145.096 222.108L139.77 216.783Z" stroke="#007D6E" stroke-opacity="0.25"/>
<path d="M126.268 223.092L119.421 216.245L114.095 221.571V228.418H120.942L126.268 223.092Z" stroke="#007D6E" stroke-opacity="0.25"/>
<path d="M122.332 212.985L129.326 219.979L136.32 212.985L129.326 205.991L122.332 212.985Z" stroke="#007D6E" stroke-opacity="0.25"/>
<path d="M150.205 156.931H160.096V147.04H150.205V156.931Z" stroke="#007D6E" stroke-opacity="0.25"/>
<path d="M148.148 269.798V279.688H158.039V269.798H148.148Z" stroke="#007D6E" stroke-opacity="0.25"/>
<path d="M119.42 210.127L126.268 203.279L120.942 197.954L114.094 197.954L114.094 204.801L119.42 210.127Z" stroke="#007D6E" stroke-opacity="0.25"/>
<path d="M145.736 156.228L145.736 146.544L138.204 146.544L133.362 151.386L138.204 156.228L145.736 156.228Z" stroke="#007D6E" stroke-opacity="0.25"/>
<path d="M160.261 161.07H150.577V168.601L155.419 173.443L160.261 168.601V161.07Z" stroke="#007D6E" stroke-opacity="0.25"/>
<path d="M127.443 272.433L127.174 272.164M127.174 272.164L121.795 266.784L112.649 266.784L112.649 257.1L106.193 250.644L112.918 243.92L112.918 234.236L122.064 234.236L129.595 226.704L136.32 233.429L146.004 233.429L146.004 242.575L151.653 248.224L143.852 256.024L143.852 265.17L134.168 265.17L127.174 272.164Z" stroke="#007D6E" stroke-opacity="0.25"/>
<path d="M128.25 198.998L127.981 198.729M127.981 198.729L122.601 193.349L113.455 193.349L113.455 183.665L107 177.209L113.724 170.484L113.724 160.801L122.87 160.801L130.402 153.269L137.127 159.994L146.81 159.994L146.81 169.139L152.459 174.788L144.659 182.589L144.659 191.735L134.975 191.735L127.981 198.729Z" stroke="#007D6E" stroke-opacity="0.25"/>
<path d="M249.229 152.192L249.039 152.002M249.039 152.002L243.138 146.313L235.535 146.486V165.507L249.039 152.002Z" stroke="#007D6E" stroke-opacity="0.25"/>
<path d="M218.474 185.499L218.664 185.69M218.664 185.69L224.565 191.379L232.169 191.206V172.185L218.664 185.69Z" stroke="#007D6E" stroke-opacity="0.25"/>
<path d="M198.334 192.15L198.603 192.15M198.603 192.15L206.798 192L212.052 186.501L198.603 173.051L198.603 192.15Z" stroke="#007D6E" stroke-opacity="0.25"/>
<path d="M196.306 146.006L196.037 146.006M196.037 146.006L187.841 146.156L182.587 151.655L196.037 165.105L196.037 146.006Z" stroke="#007D6E" stroke-opacity="0.25"/>
<path d="M233.157 105.926L233.157 105.657M233.157 105.657L233.157 96.2421L239.613 89.7862L217.556 67.7288L193.615 91.6692L199.533 97.587L199.533 106.733L209.217 107.271L215.673 113.727L223.743 105.657L233.157 105.657Z" stroke="#007D6E" stroke-opacity="0.25"/>
<path d="M221.86 146.275L233.158 146.275L233.158 165.104L215.673 182.589L199.264 165.642V146.275H208.41L215.135 139.55L221.86 146.275Z" stroke="#007D6E" stroke-opacity="0.25"/>
<path d="M265.372 169.563L273.025 177.045L261.515 188.599L237.256 188.758L237.117 167.597L250.066 154.599L256.262 160.656L265.313 160.596L265.372 169.563Z" stroke="#007D6E" stroke-opacity="0.25"/>
<path d="M274.044 109.154H283.727V116.686L278.885 121.528L274.044 116.686V109.154Z" stroke="#007D6E" stroke-opacity="0.25"/>
<path d="M283.727 140.895H274.043V133.363L278.885 128.521L283.727 133.363V140.895Z" stroke="#007D6E" stroke-opacity="0.25"/>
<path d="M268.126 146.813V156.497H260.594L255.753 151.655L260.594 146.813H268.126Z" stroke="#007D6E" stroke-opacity="0.25"/>
<path d="M242.819 92.8451L249.666 99.6925L244.34 105.018H237.493V98.1709L242.819 92.8451Z" stroke="#007D6E" stroke-opacity="0.25"/>
<path d="M205.697 129.966L212.545 136.814L207.219 142.139H200.372V135.292L205.697 129.966Z" stroke="#007D6E" stroke-opacity="0.25"/>
<path d="M183.792 100.866L190.639 94.0184L195.965 99.3441L195.965 106.192L189.117 106.192L183.792 100.866Z" stroke="#007D6E" stroke-opacity="0.25"/>
<path d="M149.502 111.037L159.185 111.037L159.185 118.569L154.343 123.411L149.502 118.569L149.502 111.037Z" stroke="#007D6E" stroke-opacity="0.25"/>
<path d="M219.739 136.814L226.586 129.966L231.912 135.292L231.912 142.14L225.065 142.14L219.739 136.814Z" stroke="#007D6E" stroke-opacity="0.25"/>
<path d="M226.048 123.31L219.2 116.463L224.526 111.137H231.373V117.984L226.048 123.31Z" stroke="#007D6E" stroke-opacity="0.25"/>
<path d="M215.942 119.376L222.936 126.369L215.942 133.363L208.948 126.369L215.942 119.376Z" stroke="#007D6E" stroke-opacity="0.25"/>
<path d="M272.754 145.191H282.645V155.082H272.754V145.191Z" stroke="#007D6E" stroke-opacity="0.25"/>
<path d="M213.082 116.463L206.235 123.311L200.909 117.985L200.909 111.137L207.757 111.137L213.082 116.463Z" stroke="#007D6E" stroke-opacity="0.25"/>
<path d="M159.184 142.778L149.5 142.778L149.5 135.246L154.342 130.404L159.184 135.246L159.184 142.778Z" stroke="#007D6E" stroke-opacity="0.25"/>
<path d="M164.026 157.304V147.62H171.558L176.4 152.462L171.558 157.304H164.026Z" stroke="#007D6E" stroke-opacity="0.25"/>
<path d="M275.389 124.487L275.12 124.218M275.12 124.218L269.741 118.838L269.741 109.692L260.057 109.692L253.601 103.237L246.876 109.961L237.192 109.961L237.192 119.107L229.661 126.639L236.385 133.364L236.385 143.047L245.531 143.047L251.18 148.696L258.981 140.895L268.127 140.895L268.127 131.212L275.12 124.218Z" stroke="#007D6E" stroke-opacity="0.25"/>
<path d="M201.954 125.294L201.685 125.025M201.685 125.025L196.305 119.645L196.305 110.499L186.621 110.499L180.165 104.043L173.441 110.768L163.757 110.768L163.757 119.914L156.225 127.445L162.95 134.17L162.95 143.854L172.096 143.854L177.745 149.503L185.545 141.702L194.691 141.702L194.691 132.018L201.685 125.025Z" stroke="#007D6E" stroke-opacity="0.25"/>
<path d="M106.193 321.658L107.807 258.714L63.6925 214.599L109.69 168.601L109.69 106.733L173.173 106.733L217.825 62.08L261.671 105.926L321.926 105.926" stroke="#007D6E" stroke-opacity="0.25"/>
<path d="M181.405 272.195L181.595 272.386M181.595 272.386L187.497 278.075L195.1 277.902V258.881L181.595 272.386Z" stroke="#007D6E" stroke-opacity="0.25"/>
<path d="M212.009 239.069L211.819 238.879M211.819 238.879L205.918 233.19L198.314 233.363V252.384L211.819 238.879Z" stroke="#007D6E" stroke-opacity="0.25"/>
<path d="M232.148 232.419L231.879 232.419M231.879 232.419L223.683 232.569L218.429 238.068L231.879 251.517L231.879 232.419Z" stroke="#007D6E" stroke-opacity="0.25"/>
<path d="M234.174 278.56L234.443 278.56M234.443 278.56L242.638 278.41L247.892 272.911L234.443 259.461L234.443 278.56Z" stroke="#007D6E" stroke-opacity="0.25"/>
<path d="M197.326 318.643L197.326 318.912M197.326 318.912L197.326 328.327L190.87 334.783L212.928 356.84L236.868 332.9L230.95 326.982L230.95 317.836L221.266 317.298L214.811 310.843L206.741 318.912L197.326 318.912Z" stroke="#007D6E" stroke-opacity="0.25"/>
<path d="M208.95 277.077L197.652 277.077L197.652 258.248L215.137 240.763L231.545 257.71V277.077H222.399L215.675 283.802L208.95 277.077Z" stroke="#007D6E" stroke-opacity="0.25"/>
<path d="M258.089 263.5L250.101 271.488L236.786 258.174V233.447L260.372 233.828L274.067 247.522L267.6 253.989V263.5H258.089Z" stroke="#007D6E" stroke-opacity="0.25"/>
<path d="M156.435 315.413H146.751V307.881L151.593 303.039L156.435 307.881V315.413Z" stroke="#007D6E" stroke-opacity="0.25"/>
<path d="M146.753 283.673H156.436V291.205L151.594 296.047L146.753 291.205V283.673Z" stroke="#007D6E" stroke-opacity="0.25"/>
<path d="M162.355 277.756V268.072H169.887L174.729 272.914L169.887 277.756H162.355Z" stroke="#007D6E" stroke-opacity="0.25"/>
<path d="M187.662 331.722L180.814 324.874L186.14 319.549H192.988V326.396L187.662 331.722Z" stroke="#007D6E" stroke-opacity="0.25"/>
<path d="M224.783 294.601L217.936 287.753L223.261 282.428H230.109V289.275L224.783 294.601Z" stroke="#007D6E" stroke-opacity="0.25"/>
<path d="M246.692 323.703L239.844 330.55L234.519 325.225L234.519 318.377L241.366 318.377L246.692 323.703Z" stroke="#007D6E" stroke-opacity="0.25"/>
<path d="M280.982 313.532L271.298 313.532L271.298 306L276.14 301.158L280.982 306L280.982 313.532Z" stroke="#007D6E" stroke-opacity="0.25"/>
<path d="M210.743 287.754L203.895 294.602L198.569 289.276L198.569 282.428L205.417 282.428L210.743 287.754Z" stroke="#007D6E" stroke-opacity="0.25"/>
<path d="M204.432 301.258L211.279 308.105L205.954 313.431H199.106V306.584L204.432 301.258Z" stroke="#007D6E" stroke-opacity="0.25"/>
<path d="M214.541 305.193L207.547 298.199L214.541 291.205L221.534 298.199L214.541 305.193Z" stroke="#007D6E" stroke-opacity="0.25"/>
<path d="M270.596 277.322V267.431H280.486V277.322H270.596Z" stroke="#007D6E" stroke-opacity="0.25"/>
<path d="M217.397 308.103L224.245 301.256L229.57 306.582L229.57 313.429L222.723 313.429L217.397 308.103Z" stroke="#007D6E" stroke-opacity="0.25"/>
<path d="M271.295 281.788L280.979 281.788L280.979 289.32L276.137 294.162L271.295 289.32L271.295 281.788Z" stroke="#007D6E" stroke-opacity="0.25"/>
<path d="M266.452 267.263V276.946H258.921L254.079 272.105L258.921 267.263H266.452Z" stroke="#007D6E" stroke-opacity="0.25"/>
<path d="M155.092 300.08L155.361 300.349M155.361 300.349L160.741 305.729L160.741 314.875L170.425 314.875L176.88 321.331L183.605 314.606L193.289 314.606L193.289 305.46L200.821 297.928L194.096 291.204L194.096 281.52L184.95 281.52L179.301 275.871L171.501 283.672L162.355 283.672L162.355 293.355L155.361 300.349Z" stroke="#007D6E" stroke-opacity="0.25"/>
<path d="M228.528 299.275L228.797 299.544M228.797 299.544L234.176 304.923L234.176 314.069L243.86 314.069L250.316 320.525L257.041 313.8L266.725 313.8L266.725 304.654L274.256 297.123L267.532 290.398L267.532 280.714L258.386 280.714L252.737 275.065L244.936 282.866L235.79 282.866L235.79 292.55L228.797 299.544Z" stroke="#007D6E" stroke-opacity="0.25"/>
<path d="M284.535 303.125V311.747L315.192 311.747L315.192 281.091L306.569 281.091L300.103 274.624L293.397 281.33L284.774 281.33L284.774 289.952L278.068 296.659L284.535 303.125Z" stroke="#007D6E" stroke-opacity="0.25"/>
<path d="M309.203 140.021L317.825 140.021L317.825 109.364L287.168 109.364L287.168 117.986L280.701 124.453L287.407 131.159L287.407 139.781L296.03 139.781L302.736 146.487L309.203 140.021Z" stroke="#007D6E" stroke-opacity="0.25"/>
<path d="M145.86 120.86L145.86 112.238L115.203 112.238L115.203 142.895L123.825 142.895L130.292 149.362L136.998 142.655L145.62 142.655L145.62 134.033L152.326 127.327L145.86 120.86Z" stroke="#007D6E" stroke-opacity="0.25"/>
<path d="M121.67 284.443H113.048L113.048 315.1L143.705 315.1L143.705 306.478L150.172 300.011L143.466 293.305L143.466 284.683L134.843 284.683L128.137 277.977L121.67 284.443Z" stroke="#007D6E" stroke-opacity="0.25"/>
<path d="M274.84 177.803L275.03 177.993M275.03 177.993L280.719 183.894L280.546 191.498H261.525L275.03 177.993Z" stroke="#007D6E" stroke-opacity="0.25"/>
<path d="M242.026 209.052L241.836 208.862M241.836 208.862L236.147 202.961L236.32 195.357H255.341L241.836 208.862Z" stroke="#007D6E" stroke-opacity="0.25"/>
<path d="M235.375 229.191L235.375 228.922M235.375 228.922L235.525 220.726L241.024 215.473L254.474 228.922L235.375 228.922Z" stroke="#007D6E" stroke-opacity="0.25"/>
<path d="M281.516 231.217L281.516 231.486M281.516 231.486L281.367 239.682L275.867 244.936L262.418 231.486L281.516 231.486Z" stroke="#007D6E" stroke-opacity="0.25"/>
<path d="M321.6 194.369L321.869 194.369M321.869 194.369L331.284 194.369L337.739 187.913L359.797 209.97L335.856 233.911L329.939 227.993L320.793 227.993L320.255 218.309L313.799 211.853L321.869 203.784L321.869 194.369Z" stroke="#007D6E" stroke-opacity="0.25"/>
<path d="M281.25 205.665L281.25 194.368L262.42 194.368L244.936 211.852L261.882 228.261H281.25V219.115L287.975 212.39L281.25 205.665Z" stroke="#007D6E" stroke-opacity="0.25"/>
<path d="M318.368 153.479V143.795H310.837L305.995 148.637L310.837 153.479H318.368Z" stroke="#007D6E" stroke-opacity="0.25"/>
<path d="M286.629 143.797V153.48H294.16L299.002 148.639L294.16 143.797H286.629Z" stroke="#007D6E" stroke-opacity="0.25"/>
<path d="M280.712 159.399H271.029V166.931L275.87 171.772L280.712 166.931V159.399Z" stroke="#007D6E" stroke-opacity="0.25"/>
<path d="M334.679 184.705L327.832 177.858L322.506 183.184V190.031H329.353L334.679 184.705Z" stroke="#007D6E" stroke-opacity="0.25"/>
<path d="M297.558 221.826L290.711 214.979L285.385 220.305V227.152H292.232L297.558 221.826Z" stroke="#007D6E" stroke-opacity="0.25"/>
<path d="M326.66 243.734L333.508 236.887L328.182 231.561L321.335 231.561L321.335 238.409L326.66 243.734Z" stroke="#007D6E" stroke-opacity="0.25"/>
<path d="M316.489 278.025L316.489 268.341L308.957 268.341L304.115 273.183L308.957 278.025L316.489 278.025Z" stroke="#007D6E" stroke-opacity="0.25"/>
<path d="M290.712 207.786L297.56 200.938L292.234 195.613L285.386 195.613L285.386 202.46L290.712 207.786Z" stroke="#007D6E" stroke-opacity="0.25"/>
<path d="M304.215 201.476L311.063 208.324L316.389 202.998V196.15H309.541L304.215 201.476Z" stroke="#007D6E" stroke-opacity="0.25"/>
<path d="M308.15 211.584L301.156 204.59L294.162 211.584L301.156 218.577L308.15 211.584Z" stroke="#007D6E" stroke-opacity="0.25"/>
<path d="M311.059 214.44L304.212 221.287L309.538 226.613L316.385 226.613L316.385 219.766L311.059 214.44Z" stroke="#007D6E" stroke-opacity="0.25"/>
<path d="M284.745 268.339L284.745 278.022L292.277 278.022L297.119 273.181L292.277 268.339L284.745 268.339Z" stroke="#007D6E" stroke-opacity="0.25"/>
<path d="M270.219 263.497H279.903V255.965L275.061 251.123L270.219 255.965V263.497Z" stroke="#007D6E" stroke-opacity="0.25"/>
<path d="M303.037 152.134L303.306 152.403M303.306 152.403L308.686 157.783H317.832L317.832 167.467L324.288 173.923L317.563 180.648V190.331H308.417L300.885 197.863L294.16 191.138L284.477 191.138L284.477 181.993L278.828 176.344L286.629 168.543V159.397L296.312 159.397L303.306 152.403Z" stroke="#007D6E" stroke-opacity="0.25"/>
<path d="M302.232 225.571L302.501 225.84M302.501 225.84L307.881 231.22L317.027 231.22L317.027 240.903L323.483 247.359L316.758 254.084L316.758 263.768L307.612 263.768L300.08 271.299L293.356 264.575L283.672 264.575L283.672 255.429L278.023 249.78L285.824 241.979L285.824 232.834L295.508 232.834L302.501 225.84Z" stroke="#007D6E" stroke-opacity="0.25"/>
<path d="M105.869 321.334L168.813 319.72L212.928 363.835L258.926 317.837L320.794 317.837L320.794 254.355L365.447 209.702L321.601 165.856L321.601 105.602" stroke="#007D6E" stroke-opacity="0.25"/>
<path d="M193.042 213.07L199.509 219.537L199.509 229.117L209.089 229.117L215.556 235.584L222.502 228.638L231.603 228.638L231.603 219.537L237.83 213.31L231.363 206.843V197.263L221.783 197.263L215.316 190.796L209.089 197.023L199.988 197.023L199.988 206.125L193.042 213.07Z" stroke="#007D6E" stroke-opacity="0.25"/>
</svg>
