<svg width="69" height="49" viewBox="0 0 69 49" fill="none" xmlns="http://www.w3.org/2000/svg">
<path d="M23.9869 27.5204L24.0592 27.5084M24.0592 27.5084L26.267 27.1825L27.9237 28.4247L24.9123 32.6377L24.0592 27.5084Z" stroke="#007D6E" stroke-opacity="0.25" stroke-width="0.3"/>
<path d="M25.515 39.704L25.4428 39.716M25.4428 39.716L23.235 40.0419L21.5782 38.7997L24.5897 34.5867L25.4428 39.716Z" stroke="#007D6E" stroke-opacity="0.25" stroke-width="0.3"/>
<path d="M28.9231 44.3655L28.8635 44.3229M28.8635 44.3229L27.0719 42.9922L26.7788 40.9423L31.8873 40.0927L28.8635 44.3229Z" stroke="#007D6E" stroke-opacity="0.25" stroke-width="0.3"/>
<path d="M36.6775 34.466L36.7371 34.5086M36.7371 34.5086L38.5287 35.8394L38.8218 37.8892L33.7133 38.7389L36.7371 34.5086Z" stroke="#007D6E" stroke-opacity="0.25" stroke-width="0.3"/>
<path d="M34.8612 19.754L34.9037 19.6944M34.9037 19.6944L36.3943 17.6091L35.9865 15.157L44.3644 13.7636L45.8767 22.8567L43.629 23.2305L42.181 25.2562L39.9509 23.8422L37.4989 24.2501L36.9891 21.185L34.9037 19.6944Z" stroke="#007D6E" stroke-opacity="0.25" stroke-width="0.3"/>
<path d="M30.9885 30.7789L28.4861 28.9902L25.5049 33.1609L26.6094 39.8019L32.9269 38.6461L35.9933 34.3563L33.9675 32.9083L33.5427 30.3541L30.9885 30.7789Z" stroke="#007D6E" stroke-opacity="0.25" stroke-width="0.3"/>
<path d="M39.5905 41.5883L39.0858 38.554L34.0287 39.3952L30.1139 44.8721L35.3982 48.522L40.5998 47.6568L40.1913 45.2005L41.697 43.094L39.5905 41.5883Z" stroke="#007D6E" stroke-opacity="0.25" stroke-width="0.3"/>
<path d="M17.6037 28.7924L14.7125 29.2733L15.4452 33.679L20.8246 37.5242L24.2107 32.7871L23.3863 27.8306L21.0457 28.2199L19.0385 26.7852L17.6037 28.7924Z" stroke="#007D6E" stroke-opacity="0.25" stroke-width="0.3"/>
<path d="M25.2931 13.9955L23.1481 12.4623L21.9557 14.1306L22.2615 15.9696L24.1006 15.6637L25.2931 13.9955Z" stroke="#007D6E" stroke-opacity="0.25" stroke-width="0.3"/>
<path d="M18.123 19.4931L20.2679 21.0262L21.4603 19.358L21.1545 17.5189L19.3154 17.8248L18.123 19.4931Z" stroke="#007D6E" stroke-opacity="0.25" stroke-width="0.3"/>
<path d="M20.642 23.2738L19.1088 25.4188L20.777 26.6112L22.6161 26.3053L22.3102 24.4663L20.642 23.2738Z" stroke="#007D6E" stroke-opacity="0.25" stroke-width="0.3"/>
<path d="M34.7917 15.327L32.1909 15.7596L32.5273 17.7824L34.044 18.8665L35.1281 17.3498L34.7917 15.327Z" stroke="#007D6E" stroke-opacity="0.25" stroke-width="0.3"/>
<path d="M37.1374 29.4264L34.5366 29.8589L34.873 31.8818L36.3897 32.9659L37.4738 31.4492L37.1374 29.4264Z" stroke="#007D6E" stroke-opacity="0.25" stroke-width="0.3"/>
<path d="M46.5966 26.4491L46.164 23.8483L44.1412 24.1848L43.0571 25.7015L44.5737 26.7856L46.5966 26.4491Z" stroke="#007D6E" stroke-opacity="0.25" stroke-width="0.3"/>
<path d="M52.5811 34.131L50.4362 32.5978L49.2438 34.2661L49.5496 36.1051L51.3887 35.7992L52.5811 34.131Z" stroke="#007D6E" stroke-opacity="0.25" stroke-width="0.3"/>
<path d="M32.9423 28.7199L32.5097 26.1191L30.4869 26.4555L29.4028 27.9722L30.9194 29.0563L32.9423 28.7199Z" stroke="#007D6E" stroke-opacity="0.25" stroke-width="0.3"/>
<path d="M33.683 24.7301L36.2838 24.2976L35.9473 22.2747L34.4306 21.1906L33.3465 22.7073L33.683 24.7301Z" stroke="#007D6E" stroke-opacity="0.25" stroke-width="0.3"/>
<path d="M36.5451 25.4586L33.8887 25.9004L34.3305 28.5568L36.9869 28.115L36.5451 25.4586Z" stroke="#007D6E" stroke-opacity="0.25" stroke-width="0.3"/>
<path d="M44.5474 40.507L42.9814 42.6978L45.1722 44.2637L46.7382 42.0729L44.5474 40.507Z" stroke="#007D6E" stroke-opacity="0.25" stroke-width="0.3"/>
<path d="M19.8734 22.1822L17.6826 20.6162L16.1167 22.807L18.3074 24.3729L19.8734 22.1822Z" stroke="#007D6E" stroke-opacity="0.25" stroke-width="0.3"/>
<path d="M37.6388 25.2662L38.0713 27.867L40.0942 27.5306L41.1783 26.0139L39.6616 24.9298L37.6388 25.2662Z" stroke="#007D6E" stroke-opacity="0.25" stroke-width="0.3"/>
<path d="M45.411 39.6283L47.556 41.1615L48.7484 39.4932L48.4426 37.6542L46.6035 37.96L45.411 39.6283Z" stroke="#007D6E" stroke-opacity="0.25" stroke-width="0.3"/>
<path d="M42.0387 42.0792L43.5719 39.9343L41.9036 38.7418L40.0646 39.0477L40.3704 40.8867L42.0387 42.0792Z" stroke="#007D6E" stroke-opacity="0.25" stroke-width="0.3"/>
<path d="M22.5677 17.1787L22.6699 17.1617M22.6699 17.1617L24.7133 16.8219L26.1613 14.7961L28.3062 16.3293L30.7583 15.9214L31.1831 18.4757L33.328 20.0088L31.88 22.0346L32.3558 24.8953L29.8016 25.3202L28.2684 27.4651L26.2427 26.0171L24.0971 26.3739L23.6043 23.411L21.5786 21.963L23.1117 19.8181L22.6699 17.1617Z" stroke="#007D6E" stroke-opacity="0.25" stroke-width="0.3"/>
<path d="M38.7054 28.9841L38.8076 28.9671M38.8076 28.9671L40.851 28.6273L42.299 26.6015L44.4439 28.1347L46.896 27.7269L47.3208 30.2811L49.4657 31.8143L48.0177 33.84L48.4935 36.7008L45.9393 37.1256L44.4061 39.2705L42.3803 37.8225L40.2348 38.1793L39.742 35.2164L37.7163 33.7684L39.2494 31.6235L38.8076 28.9671Z" stroke="#007D6E" stroke-opacity="0.25" stroke-width="0.3"/>
<path d="M29.1262 45.5916L29.0836 45.6512M29.0836 45.6512L27.8192 47.4902L28.2054 49.5246L33.3139 48.6749L29.0836 45.6512Z" stroke="#007D6E" stroke-opacity="0.25" stroke-width="0.3"/>
<path d="M39.6687 52.448L39.7113 52.3884M39.7113 52.3884L40.9757 50.5494L40.5895 48.515L35.481 49.3646L39.7113 52.3884Z" stroke="#007D6E" stroke-opacity="0.25" stroke-width="0.3"/>
<path d="M54.8249 47.6172L53.2917 49.7621L51.6234 48.5696L51.3176 46.7306L53.1566 46.4247L54.8249 47.6172Z" stroke="#007D6E" stroke-opacity="0.25" stroke-width="0.3"/>
<path d="M46.2611 44.7368L47.7942 42.5919L49.4625 43.7844L49.7684 45.6234L47.9293 45.9293L46.2611 44.7368Z" stroke="#007D6E" stroke-opacity="0.25" stroke-width="0.3"/>
<path d="M42.2773 43.5094L44.4223 45.0425L43.2298 46.7108L41.3907 47.0167L41.0849 45.1776L42.2773 43.5094Z" stroke="#007D6E" stroke-opacity="0.25" stroke-width="0.3"/>
<path d="M43.3621 56.9784L43.4642 56.9614M43.4642 56.9614L45.5076 56.6215L47.5334 58.0695L49.0665 55.9246L51.5186 55.5168L51.0938 52.9626L52.6269 50.8177L50.6012 49.3697L50.1254 46.5089L47.5712 46.9337L45.4262 45.4006L43.9783 47.4263L41.8327 47.7832L42.3255 50.7461L40.8775 52.7718L43.0224 54.305L43.4642 56.9614Z" stroke="#007D6E" stroke-opacity="0.25" stroke-width="0.3"/>
<path d="M15.0293 4.67822L28.7157 15.0013L45.4714 12.2145L48.3772 29.6854L62.0808 39.4807L52.0301 53.5418L54.8509 70.5018L38.1973 73.2717L28.6576 86.6178" stroke="#007D6E" stroke-opacity="0.25" stroke-width="0.3"/>
<path d="M14.0773 29.1686L14.005 29.1806M14.005 29.1806L11.8106 29.5869L10.6451 31.2985L14.8581 34.31L14.005 29.1806Z" stroke="#007D6E" stroke-opacity="0.25" stroke-width="0.3"/>
<path d="M16.5692 41.192L16.6415 41.18M16.6415 41.18L18.8359 40.7737L20.0014 39.0621L15.7883 36.0506L16.6415 41.18Z" stroke="#007D6E" stroke-opacity="0.25" stroke-width="0.3"/>
<path d="M14.8533 46.7055L14.8959 46.646M14.8959 46.646L16.1603 44.807L15.7741 42.7726L10.6656 43.6222L14.8959 46.646Z" stroke="#007D6E" stroke-opacity="0.25" stroke-width="0.3"/>
<path d="M4.31275 39.8491L4.27017 39.9087M4.27017 39.9087L3.00574 41.7477L3.39196 43.7821L8.50042 42.9325L4.27017 39.9087Z" stroke="#007D6E" stroke-opacity="0.25" stroke-width="0.3"/>
<path d="M1.26839 25.3412L1.20881 25.2986M1.20881 25.2986L-0.876527 23.808L-1.28436 21.3559L-9.66222 22.7493L-8.14986 31.8424L-5.90214 31.4685L-3.87638 32.9165L-2.22405 30.8568L0.228009 30.449L-0.281777 27.3839L1.20881 25.2986Z" stroke="#007D6E" stroke-opacity="0.25" stroke-width="0.3"/>
<path d="M8.63441 34.4968L10.4231 31.9944L14.5938 34.9756L15.6983 41.6166L9.34683 42.568L5.057 39.5016L6.505 37.4759L6.08018 34.9216L8.63441 34.4968Z" stroke="#007D6E" stroke-opacity="0.25" stroke-width="0.3"/>
<path d="M3.86248 47.5307L3.35782 44.4965L8.41493 43.6554L13.8918 47.5702L10.0734 52.7341L4.8718 53.5993L4.46327 51.143L2.35676 49.6372L3.86248 47.5307Z" stroke="#007D6E" stroke-opacity="0.25" stroke-width="0.3"/>
<path d="M8.45834 16.7957L9.99151 14.6507L11.6598 15.8432L11.9656 17.6823L10.1266 17.9881L8.45834 16.7957Z" stroke="#007D6E" stroke-opacity="0.25" stroke-width="0.3"/>
<path d="M17.0212 19.6763L15.488 21.8212L13.8197 20.6287L13.5138 18.7897L15.3529 18.4838L17.0212 19.6763Z" stroke="#007D6E" stroke-opacity="0.25" stroke-width="0.3"/>
<path d="M15.8613 24.0689L18.0062 25.6021L16.8138 27.2704L14.9747 27.5762L14.6689 25.7372L15.8613 24.0689Z" stroke="#007D6E" stroke-opacity="0.25" stroke-width="0.3"/>
<path d="M-0.0988028 21.1301L2.502 20.6976L2.83844 22.7204L1.75432 24.2371L0.237639 23.153L-0.0988028 21.1301Z" stroke="#007D6E" stroke-opacity="0.25" stroke-width="0.3"/>
<path d="M2.2469 35.2295L4.8477 34.7969L5.18414 36.8198L4.10003 38.3365L2.58334 37.2523L2.2469 35.2295Z" stroke="#007D6E" stroke-opacity="0.25" stroke-width="0.3"/>
<path d="M5.98585 33.2035L5.55328 30.6027L7.57613 30.2663L9.09281 31.3504L8.0087 32.8671L5.98585 33.2035Z" stroke="#007D6E" stroke-opacity="0.25" stroke-width="0.3"/>
<path d="M3.99431 29.668L1.39351 30.1005L1.05707 28.0777L2.14118 26.561L3.65787 27.6451L3.99431 29.668Z" stroke="#007D6E" stroke-opacity="0.25" stroke-width="0.3"/>
<path d="M1.52231 31.2836L4.17871 30.8418L4.62053 33.4982L1.96413 33.94L1.52231 31.2836Z" stroke="#007D6E" stroke-opacity="0.25" stroke-width="0.3"/>
<path d="M-1.17905 48.1123L1.01172 49.6782L-0.554227 51.869L-2.74499 50.303L-1.17905 48.1123Z" stroke="#007D6E" stroke-opacity="0.25" stroke-width="0.3"/>
<path d="M0.425282 31.4556L0.85785 34.0564L-1.16499 34.3929L-2.68168 33.3088L-1.59756 31.7921L0.425282 31.4556Z" stroke="#007D6E" stroke-opacity="0.25" stroke-width="0.3"/>
<path d="M1.7041 48.7875L-0.440811 47.2543L0.751656 45.5861L2.5907 45.2802L2.89657 47.1192L1.7041 48.7875Z" stroke="#007D6E" stroke-opacity="0.25" stroke-width="0.3"/>
<path d="M12.0667 18.9254L11.9645 18.9424M11.9645 18.9424L9.9211 19.2823L7.89535 17.8343L6.36218 19.9792L3.91012 20.387L4.33494 22.9412L2.80177 25.0862L4.82752 26.5341L5.30332 29.3949L7.85755 28.9701L10.0025 30.5032L11.4505 28.4775L13.596 28.1206L13.1032 25.1577L14.5512 23.132L12.4063 21.5988L11.9645 18.9424Z" stroke="#007D6E" stroke-opacity="0.25" stroke-width="0.3"/>
<path d="M0.618411 35.3187L0.516241 35.3357M0.516241 35.3357L-1.52714 35.6756L-3.55289 34.2276L-5.08607 36.3725L-7.53812 36.7803L-7.1133 39.3345L-8.64647 41.4795L-6.62072 42.9275L-6.14492 45.7882L-3.59069 45.3634L-1.44578 46.8965L0.0022175 44.8708L2.14777 44.5139L1.65498 41.551L3.10297 39.5253L0.958056 37.9921L0.516241 35.3357Z" stroke="#007D6E" stroke-opacity="0.25" stroke-width="0.3"/>
<path d="M53.2252 45.2556L55.135 46.6207L59.9887 39.8303L53.1983 34.9765L51.8332 36.8863L49.377 37.2949L49.8007 39.842L48.4355 41.7518L50.3453 43.1169L50.769 45.6641L53.2252 45.2556Z" stroke="#007D6E" stroke-opacity="0.25" stroke-width="0.3"/>
<path d="M20.822 13.9982L22.1871 12.0884L15.3967 7.23469L10.543 14.0251L12.4527 15.3902L12.8613 17.8464L15.4084 17.4227L17.3182 18.7879L18.6833 16.8781L21.2305 16.4544L20.822 13.9982Z" stroke="#007D6E" stroke-opacity="0.25" stroke-width="0.3"/>
<path d="M15.0574 47.9316L15.1169 47.9742M15.1169 47.9742L16.9086 49.3049L17.2016 51.3548L12.0932 52.2045L15.1169 47.9742Z" stroke="#007D6E" stroke-opacity="0.25" stroke-width="0.3"/>
<path d="M15.1523 4.65771L5.54421 18.8552L-11.2115 21.642L-8.30574 39.1129L-18.101 52.8166L-4.03989 62.8673L-1.21908 79.8274L15.4345 77.0576L28.7806 86.5973" stroke="#007D6E" stroke-opacity="0.25" stroke-width="0.3"/>
</svg>
