<svg width="31" height="31" viewBox="0 0 31 31" fill="none" xmlns="http://www.w3.org/2000/svg">
<rect x="0.5" y="0.5" width="30" height="30" rx="9.5" stroke="#1C39BB"/>
<mask id="mask0_300_2" style="mask-type:alpha" maskUnits="userSpaceOnUse" x="7" y="7" width="16" height="16">
<rect x="7" y="7" width="16" height="16" fill="#D9D9D9"/>
</mask>
<g mask="url(#mask0_300_2)">
<path d="M11.667 21C11.3003 21 10.9864 20.8694 10.7253 20.6083C10.4642 20.3472 10.3337 20.0333 10.3337 19.6667V11C10.1448 11 9.98644 10.9361 9.85866 10.8083C9.73088 10.6806 9.66699 10.5222 9.66699 10.3333C9.66699 10.1444 9.73088 9.98611 9.85866 9.85833C9.98644 9.73056 10.1448 9.66667 10.3337 9.66667H13.0003C13.0003 9.47778 13.0642 9.31944 13.192 9.19167C13.3198 9.06389 13.4781 9 13.667 9H16.3337C16.5225 9 16.6809 9.06389 16.8087 9.19167C16.9364 9.31944 17.0003 9.47778 17.0003 9.66667H19.667C19.8559 9.66667 20.0142 9.73056 20.142 9.85833C20.2698 9.98611 20.3337 10.1444 20.3337 10.3333C20.3337 10.5222 20.2698 10.6806 20.142 10.8083C20.0142 10.9361 19.8559 11 19.667 11V19.6667C19.667 20.0333 19.5364 20.3472 19.2753 20.6083C19.0142 20.8694 18.7003 21 18.3337 21H11.667ZM18.3337 11H11.667V19.6667H18.3337V11ZM13.667 18.3333C13.8559 18.3333 14.0142 18.2694 14.142 18.1417C14.2698 18.0139 14.3337 17.8556 14.3337 17.6667V13C14.3337 12.8111 14.2698 12.6528 14.142 12.525C14.0142 12.3972 13.8559 12.3333 13.667 12.3333C13.4781 12.3333 13.3198 12.3972 13.192 12.525C13.0642 12.6528 13.0003 12.8111 13.0003 13V17.6667C13.0003 17.8556 13.0642 18.0139 13.192 18.1417C13.3198 18.2694 13.4781 18.3333 13.667 18.3333ZM16.3337 18.3333C16.5225 18.3333 16.6809 18.2694 16.8087 18.1417C16.9364 18.0139 17.0003 17.8556 17.0003 17.6667V13C17.0003 12.8111 16.9364 12.6528 16.8087 12.525C16.6809 12.3972 16.5225 12.3333 16.3337 12.3333C16.1448 12.3333 15.9864 12.3972 15.8587 12.525C15.7309 12.6528 15.667 12.8111 15.667 13V17.6667C15.667 17.8556 15.7309 18.0139 15.8587 18.1417C15.9864 18.2694 16.1448 18.3333 16.3337 18.3333Z" fill="#1C39BB"/>
</g>
</svg>
